<svg viewBox="0 0 214 59" xmlns="http://www.w3.org/2000/svg"><path d="M7.19 32.45h6.09V48.5c0 6.95-3.12 9.43-9.1 9.43-1.24 0-2.45-.07-3.62-.25V52.9c.71.11 1.81.18 2.62.18 2.59 0 4.01-1.03 4.01-4.26V32.45zM36 52.08c0 1.74 0 3.55.03 5.32h-5.67c-.07-.5-.07-1.35-.1-2.13-.92 1.42-2.31 2.63-6.17 2.63-3.83 0-6.8-2.24-6.8-7.62v-11.2h5.77v10.24c0 2.45.89 4.07 3.3 4.07 2.8 0 3.86-1.66 3.86-5.84v-8.47H36v13zm12.97-6.45c7.44 1.14 8.4 3.62 8.4 6.17 0 3.33-2.52 6.1-9.22 6.1-4.99 0-8.93-2.13-9.49-6.13h5.74c.46 1.31 1.66 2.16 4.14 2.16 2.48 0 3.16-.75 3.16-1.63 0-1.03-.78-1.53-4.47-2.02-6.98-1-7.94-3.55-7.94-5.78 0-2.8 2.09-5.92 8.47-5.92 6.45 0 8.72 3.05 8.97 5.67h-5.67c-.28-.85-.92-1.84-3.51-1.84-2.2 0-2.59.85-2.59 1.49 0 .78.61 1.24 4.01 1.73zm22.61-2.34h-4.26v7.73c0 1.56.32 2.27 2.1 2.27.49 0 1.06 0 1.56-.11v3.97c-1 .29-2.31.39-3.66.39-4.5 0-5.81-1.95-5.81-5.53v-8.72h-3.29v-4.21h3.29v-5.39h5.81v5.39h4.26v4.21zm2.73 14.11V39.08h5.77V57.4h-5.77zm0-21.76V31h5.77v4.64h-5.77zM97.3 51.2h5.78c-.74 3.47-3.72 6.7-9.71 6.7-7.05 0-10.17-4.43-10.17-9.68 0-4.96 3.54-9.64 10.17-9.64 7.27 0 9.36 4.75 9.57 6.77h-5.78c-.35-.99-1.24-2.41-3.75-2.41-2.98 0-4.33 2.2-4.33 5.25 0 2.94 1.24 5.35 4.33 5.35 2.05 0 3.15-.78 3.89-2.34zm27.75-2.94c0 .46 0 .81-.03 1.38h-14.36c.15 2.23 1.74 3.97 4.5 3.97 2.17 0 3.19-.68 3.87-1.81h5.81c-1.13 3.26-3.86 6.1-9.75 6.1-7.51 0-10.2-4.97-10.2-9.64 0-5.14 3.47-9.68 10.17-9.68 7.12 0 9.99 4.93 9.99 9.68zm-14.32-2.16h8.44c-.11-1.39-.85-3.44-4.15-3.44-3.01 0-4.14 1.63-4.29 3.44zM49.36 15.31c.02.25.03.52.03.79v11.3h-5.84V17.02c0-.82-.12-1.61-.44-2.26-.48-1-1.4-1.68-2.97-1.68-1.26 0-2.21.41-2.85 1.17-.75.88-1.11 2.24-1.11 4.01v9.14h-5.82V13.65c0-1.54 0-3.28-.03-4.57h5.63c.07.53.14 1.63.18 2.37.85-1.27 2.52-2.87 6.1-2.87 4.24 0 6.84 2.49 7.12 6.73zM66.4 9.08h5.89l-3.28 7.95-1.99 4.84-2.28 5.53h-6.45l-2.69-6.53-2.14-5.2-2.72-6.59h6.24c1 2.84 1.85 5.19 2.55 7.12.82 2.23 1.43 3.91 1.85 5.18.12.37.22.71.31 1.02h.07c.08-.3.18-.61.28-.96.37-1.21.9-2.75 1.65-4.88.7-1.94 1.58-4.37 2.71-7.48zm7.91 18.32V9.08h5.77V27.4h-5.77zm0-21.76V1h5.77v4.64h-5.77zm26.99 14.21c.23.63.29 1.29.29 1.95 0 1.09-.27 2.13-.88 3.02-1.22 1.83-3.83 3.08-8.33 3.08-4.32 0-7.84-1.59-9.08-4.6-.2-.47-.34-.98-.42-1.53h5.74c.46 1.31 1.67 2.16 4.15 2.16 2.48 0 3.15-.75 3.15-1.63 0-1.03-.78-1.53-4.46-2.02-2.75-.39-4.57-1.03-5.76-1.79-1.83-1.17-2.18-2.64-2.18-3.99 0-2.8 2.09-5.92 8.47-5.92 6.45 0 8.72 3.05 8.96 5.67h-5.67c-.28-.85-.92-1.84-3.5-1.84-2.2 0-2.59.85-2.59 1.49 0 .78.6 1.24 4 1.73 5.52.84 7.47 2.42 8.11 4.22zm3.23 7.55V9.08h5.78V27.4h-5.78zm0-21.76V1h5.78v4.64h-5.78zm19.42 2.94c7.16 0 10.49 5.11 10.49 9.64 0 1.64-.33 3.14-.96 4.45-1.02 2.1-2.82 3.7-5.32 4.55-1.29.44-2.77.68-4.42.68-2.47 0-4.5-.59-6.08-1.6-2-1.26-3.3-3.18-3.88-5.35-.23-.88-.35-1.79-.35-2.73 0-5 3.61-9.64 10.52-9.64zm-.03 14.96c1.48 0 2.59-.54 3.32-1.42.85-.96 1.25-2.32 1.25-3.79 0-2.77-1.38-5.35-4.61-5.35-3.15 0-4.57 2.44-4.57 5.24 0 1.23.29 2.36.86 3.28.75 1.23 2.02 2.04 3.75 2.04zm25.51-14.96c4.5 0 7.16 2.8 7.16 7.52v11.3h-5.85V17.02c0-2.09-.81-3.94-3.4-3.94-2.73 0-3.97 1.88-3.97 5.18v9.14h-5.81V13.72c0-1.56 0-3.33-.04-4.64h5.64c.07.53.14 1.63.18 2.37.85-1.27 2.51-2.87 6.09-2.87zm11.48 18.82V9.08h5.78V27.4h-5.78zm0-21.76V1h5.78v4.64h-5.78zm21.83 2.94c4.5 0 7.16 2.8 7.16 7.52v11.3h-5.85V17.02c0-2.09-.81-3.94-3.4-3.94-2.73 0-3.97 1.88-3.97 5.18v9.14h-5.81V13.72c0-1.56 0-3.33-.04-4.64h5.64c.07.53.14 1.63.18 2.37.85-1.27 2.51-2.87 6.09-2.87zm25.34.5h5.63c-.03 1.81-.03 3.61-.03 5.38v10.88c0 1.61-.17 3.05-.54 4.3-.63 2.1-1.82 3.68-3.71 4.69-1.59.85-3.7 1.29-6.38 1.29-4.11 0-6.51-1.15-7.92-2.54-1.39-1.37-1.81-2.98-1.97-3.98h5.85c.42 1.17 1.41 2.23 4.36 2.23 2.22 0 3.43-.85 4.04-2.19.42-.92.56-2.07.56-3.34v-.77c-1.06 1.48-2.55 2.58-6.09 2.58-5.32 0-8.86-4.14-8.86-9.14 0-5.67 4.07-9.89 9.32-9.89 3.83 0 5.17 1.53 5.63 2.55.04-.63.07-1.59.11-2.05zm-4.61 14.1c2.94 0 4.61-1.73 4.61-5.1 0-2.98-1.52-5-4.43-5-3.05 0-4.71 2.27-4.71 5.18 0 2.65 1.56 4.92 4.53 4.92z" id="nvisioning-Justice"/><path d="M5.995 7.4v-5h20v5h-20zm19.907 10.347L5.914 17.05l.174-4.997 19.988.698-.174 4.997zM5.995 27.4v-5h20v5h-20z" id="E"/></svg>