<svg width="60" height="60" viewBox="0 0 60 60" xmlns="http://www.w3.org/2000/svg"><path d="M56 53.94l-14-6V26.97l6.48-6.48c.58-.58 1.08-1.2 1.51-1.85L56 21.21v32.73zM34.34 17.66c-3.12-3.12-3.12-8.2 0-11.32A7.949 7.949 0 0 1 40 4c2.14 0 4.15.83 5.66 2.34 3.11 3.12 3.11 8.2 0 11.32L40 23.32l-5.66-5.66zM38 47.94L22 54.8V22.07l8-3.43c.44.65.94 1.27 1.51 1.85L38 26.97v20.97zM18 54.8l-14-6V16.07l14 6V54.8zm33.61-39.82c1.01-3.97-.02-8.36-3.13-11.46A11.924 11.924 0 0 0 40 0c-3.07 0-6.15 1.18-8.49 3.52-3.11 3.11-4.14 7.49-3.12 11.46L20 18.58 0 10v41.43L20 60l20-8.57L60 60V18.58l-8.39-3.6z"/><path d="M45 12c0 2.76-2.24 5-5 5-2.77 0-5-2.24-5-5 0-2.77 2.23-5 5-5 2.76 0 5 2.23 5 5"/></svg>