<svg id="Layer_1" xmlns="http://www.w3.org/2000/svg" viewBox="0 0 441.2 176.6"><style>.ih-logo-grayscale-c1{fill:#d2cdcd}.ih-logo-grayscale-c2{fill:#323232}</style><path class="ih-logo-grayscale-c1" d="M108.1 0h333.1v129.7H108.1z"/><path class="ih-logo-grayscale-c2" d="M0 0v129.7h46.8v46.9l61.3-46.9V0z"/><path class="ih-logo-grayscale-c1" d="M21.6 21.6h64.9V36H21.6z"/><path class="ih-logo-grayscale-c1" d="M86.5 68.5V54H21.6v14.5h25.2v25.2H21.6v14.4h64.9V93.7H61.3V68.5z"/><path class="ih-logo-grayscale-c2" d="M129.7 75.7h2.4v15h20.8v-15h2.4v32.4h-2.4V92.9h-20.8v15.2h-2.4z"/><path class="ih-logo-grayscale-c2" d="M164.4 94.6V75.7h2.4v18.7c0 7.6 4.1 12 11 12 6.6 0 10.8-4 10.8-11.8V75.7h2.4v18.7c0 9.3-5.4 14.3-13.3 14.3-7.8-.1-13.3-5-13.3-14.1"/><path class="ih-logo-grayscale-c2" d="M200.1 75.7h2.2l13 19.1 13.1-19.1h2.2v32.4h-2.4V79.9l-12.8 18.7h-.2l-12.8-18.7v28.2h-2.3z"/><path class="ih-logo-grayscale-c2" d="M262.2 96.8L253.7 78l-8.6 18.8h17.1zm-9.6-21.4h2.3L270 108h-2.6l-4.1-9.1h-19.1l-4.1 9.1h-2.5l15-32.6z"/><path class="ih-logo-grayscale-c2" d="M276.8 75.7h2.3l22.3 28.2V75.7h2.4v32.4h-1.9l-22.8-28.8v28.8h-2.3z"/><path class="ih-logo-grayscale-c2" d="M314.3 75.7h2.4v32.4h-2.4z"/><path class="ih-logo-grayscale-c2" d="M335.3 77.9H324v-2.2h25v2.2h-11.3v30.2h-2.4z"/><path class="ih-logo-grayscale-c2" d="M356.3 75.7h2.4v32.4h-2.4z"/><path class="ih-logo-grayscale-c2" d="M369.3 75.7h23v2.2h-20.6v12.7h18.6v2.2h-18.6v13.1h20.9v2.2h-23.3z"/><path class="ih-logo-grayscale-c2" d="M398.2 103.4l1.6-1.8c3.6 3.3 6.9 4.8 11.6 4.8 4.9 0 8.2-2.7 8.2-6.4v-.1c0-3.4-1.8-5.4-9.2-6.9-7.8-1.6-10.9-4.2-10.9-9.1v-.1c0-4.8 4.4-8.5 10.4-8.5 4.7 0 7.8 1.3 11.1 3.9l-1.5 1.9c-3.1-2.6-6.1-3.7-9.7-3.7-4.8 0-7.9 2.7-7.9 6.1v.1c0 3.4 1.8 5.5 9.4 7.1 7.5 1.5 10.7 4.2 10.7 8.9v.1c0 5.2-4.5 8.8-10.7 8.8-5.2 0-9.2-1.7-13.1-5.1"/><path class="ih-logo-grayscale-c2" d="M129.7 21.6h2.4V54h-2.4z"/><path class="ih-logo-grayscale-c2" d="M142.7 21.6h2.4v30.2h19V54h-21.4z"/><path class="ih-logo-grayscale-c2" d="M171.3 21.6h2.5v30.2h19V54h-21.5z"/><path class="ih-logo-grayscale-c2" d="M200.1 21.6h2.4V54h-2.4z"/><path class="ih-logo-grayscale-c2" d="M213 21.6h2.3l22.4 28.2V21.6h2.3V54h-1.8l-22.8-28.8V54H213z"/><path class="ih-logo-grayscale-c2" d="M278.3 37.9c0-8.1-5.8-14.7-13.8-14.7s-13.8 6.5-13.8 14.5v.1c0 8 5.8 14.6 13.8 14.6 8.1 0 13.8-6.5 13.8-14.5m-30.1 0c0-8.9 6.5-16.9 16.3-16.9s16.3 7.8 16.3 16.7v.1c0 8.8-6.5 16.8-16.3 16.8s-16.3-7.8-16.3-16.7"/><path class="ih-logo-grayscale-c2" d="M289.1 21.6h2.4V54h-2.4z"/><path class="ih-logo-grayscale-c2" d="M299.6 49.3l1.6-1.8c3.6 3.3 6.9 4.8 11.6 4.8 4.9 0 8.2-2.7 8.2-6.4v-.1c0-3.4-1.8-5.4-9.2-6.9-7.8-1.6-10.9-4.2-10.9-9.1v-.1c0-4.8 4.4-8.5 10.4-8.5 4.7 0 7.8 1.3 11.1 3.9l-1.5 1.9c-3.1-2.6-6.1-3.7-9.7-3.7-4.8 0-7.9 2.7-7.9 6.1v.1c0 3.4 1.8 5.5 9.4 7.1 7.5 1.5 10.7 4.2 10.7 8.9v.1c0 5.2-4.5 8.8-10.7 8.8-5.3.1-9.3-1.6-13.1-5.1"/></svg>