<svg id="Layer_1" xmlns="http://www.w3.org/2000/svg" viewBox="0 0 178.5 66"><style>.sjc0{fill:#f04c00}.sjc1{fill:#ccc5c5}</style><path class="sjc0" d="M110.5 16.2h-3.8s-.1-.1-.1-.4c0-.3.1-.4.1-.4h3.8v-3.8s.1-.1.4-.1c.3 0 .4.1.4.1v3.8h3.8s.1.1.1.4c0 .3-.1.4-.1.4h-3.8V20s-.1.1-.4.1c-.3 0-.4-.1-.4-.1v-3.8z"/><path class="sjc1" d="M50.2 14.9c-1.5-.5-3-.8-3-1.9 0-1.1.8-1.7 2.5-1.7 1.5 0 2.6.4 2.6.4.4-.4.6-1.1.6-1.8 0 0-1.3-.5-3.5-.5-3 0-4.4 1.5-4.4 3.7 0 2.7 2.5 3.2 4.3 3.8 1 .4 1.8.8 1.8 1.8 0 1.1-.7 1.7-2.3 1.7-1.6 0-3.3-.5-3.3-.5-.3.5-.5 1.2-.5 1.8 0 0 1.5.8 3.9.8 3 0 4.5-1.3 4.5-3.8 0-2.4-1.6-3.2-3.2-3.8z"/><path class="sjc1" d="M59.8 9.5c-.8 0-1.4.2-1.4.2L54.2 22s.4.2 1 .2c.7 0 1.1-.2 1.1-.2l.9-2.8H62l1 2.8s.3.2 1.1.2 1.2-.2 1.2-.2L61.1 9.7s-.5-.2-1.3-.2zm-1.9 7.9l1.2-3.6c.4-1.1.5-1.9.5-1.9h.1s.2.9.5 1.9l1.2 3.6h-3.5z"/><path class="sjc1" d="M66.8 9.5V22s.4.2 1.1.2c.8 0 1.1-.2 1.1-.2v-5.1h4.3c.1-.3.2-.6.2-.9 0-.3-.1-.6-.2-.9H69v-3.8h4.8c.1-.3.2-.6.2-.9 0-.3-.1-.6-.2-.9h-7z"/><path class="sjc1" d="M78 20.3v-3.7h4.1c.1-.3.2-.6.2-.9 0-.3-.1-.6-.2-.9H78v-3.5h5c.1-.3.2-.6.2-1 0-.3-.1-.6-.2-.8h-7.2v12.6h7.4c.1-.3.2-.6.2-.9 0-.3-.1-.6-.2-.9H78z"/><path class="sjc1" d="M84.7 9.5s-.2.4-.2 1 .2.9.2.9h3.2V22s.3.2 1.1.2c.7 0 1.1-.2 1.1-.2V11.4h3.1s.2-.4.2-1c0-.5-.2-.9-.2-.9h-8.5z"/><path class="sjc1" d="M104 9.5c-.8 0-1.2.2-1.2.2l-2.9 5-2.9-5s-.5-.2-1.3-.2c-.9 0-1.4.2-1.4.2l4.2 7.3v5s.4.2 1.2.2c.7 0 1.1-.2 1.1-.2v-5.1l4.3-7.2c.1 0-.4-.2-1.1-.2z"/><path class="sjc1" d="M120.6 9.7v8.9c0 1.3-.9 1.8-1.9 1.8-.8 0-1.5-.3-1.5-.3-.4.4-.6 1-.6 1.7 0 0 1.2.5 2.6.5 2.1 0 3.7-1.2 3.7-3.8V9.7s-.4-.2-1.1-.2c-.9 0-1.2.2-1.2.2z"/><path class="sjc1" d="M132.2 9.7v8.4c0 1.5-.8 2.3-2.3 2.3-1.5 0-2.3-.9-2.3-2.3V9.7s-.4-.2-1.1-.2c-.7 0-1.1.2-1.1.2v8c0 2.9 1.8 4.6 4.6 4.6s4.6-1.6 4.6-4.6v-8s-.4-.2-1.1-.2c-1 0-1.3.2-1.3.2z"/><path class="sjc1" d="M141.5 14.9c-1.5-.5-3-.8-3-1.9 0-1.1.8-1.7 2.5-1.7 1.5 0 2.6.4 2.6.4.4-.4.6-1.1.6-1.8 0 0-1.3-.5-3.5-.5-3 0-4.4 1.5-4.4 3.7 0 2.7 2.5 3.2 4.3 3.8 1 .4 1.8.8 1.8 1.8 0 1.1-.7 1.7-2.3 1.7-1.6 0-3.3-.5-3.3-.5-.3.5-.5 1.2-.5 1.8 0 0 1.5.8 3.9.8 3 0 4.5-1.3 4.5-3.8-.1-2.4-1.7-3.2-3.2-3.8z"/><path class="sjc1" d="M145.8 9.5s-.2.4-.2 1 .2.9.2.9h3.2V22s.3.2 1.1.2c.7 0 1.1-.2 1.1-.2V11.4h3.1s.2-.4.2-1c0-.5-.2-.9-.2-.9h-8.5z"/><path class="sjc1" d="M156.1 9.7V22s.3.2 1.1.2c.7 0 1.1-.2 1.1-.2V9.7s-.4-.2-1.1-.2c-.7 0-1.1.2-1.1.2z"/><path class="sjc1" d="M165.9 20.4c-1.9 0-3.2-.9-3.2-4.5s1.3-4.6 3.2-4.6c1.1 0 2.1.4 2.1.4.4-.4.7-.9.7-1.7 0 0-1.1-.6-3-.6-3.5 0-5.3 2.3-5.3 6.5s1.8 6.5 5.3 6.5c2 0 3.2-.6 3.2-.6 0-.6-.2-1.3-.7-1.7 0-.1-1 .3-2.3.3z"/><path class="sjc1" d="M178 20.3h-5.2v-3.7h4.1c.1-.3.2-.6.2-.9 0-.3-.1-.6-.2-.9h-4.1v-3.5h5c.1-.3.2-.6.2-1 0-.3-.1-.6-.2-.8h-7.2v12.6h7.4c.1-.3.2-.6.2-.9-.1-.3-.1-.6-.2-.9z"/><path class="sjc1" d="M48.6 36c-2.1 0-3.4-1.1-3.4-4.9 0-3.9 1.4-5 3.4-5 1.3 0 2.2.4 2.2.4.2-.2.2-.4.3-.6 0 0-.9-.5-2.6-.5-2.8 0-4.1 1.9-4.1 5.7 0 3.8 1.4 5.7 4.1 5.7 1.8 0 2.7-.5 2.7-.5 0-.2-.1-.5-.3-.6.1-.1-.9.3-2.3.3z"/><path class="sjc1" d="M59.6 25.6v5H54v-5s-.1-.1-.4-.1c-.3 0-.4.1-.4.1v10.9s.1.1.4.1c.3 0 .4-.1.4-.1v-5.2h5.7v5.2s.1.1.4.1c.3 0 .4-.1.4-.1V25.6s-.1-.1-.4-.1c-.3 0-.5.1-.5.1z"/><path class="sjc1" d="M66.9 25.5c-.3 0-.4.1-.4.1l-4.2 10.9s.1.1.4.1c.3 0 .4-.1.4-.1l1.2-3.1h5.2l1.2 3.1s.2.1.4.1c.3 0 .4-.1.4-.1l-4.2-10.9s-.2-.1-.4-.1zm-2.4 7.2l2.1-5.3c.2-.5.2-.8.2-.8s.1.3.2.8l2.1 5.3h-4.6z"/><path class="sjc1" d="M74.1 35.8V25.6s-.1-.1-.4-.1c-.3 0-.4.1-.4.1v11h5.8c0-.1.1-.2.1-.4s0-.3-.1-.4h-5z"/><path class="sjc1" d="M81.8 35.8V25.6s-.1-.1-.4-.1c-.3 0-.4.1-.4.1v11h5.8c0-.1.1-.2.1-.4s0-.3-.1-.4h-5z"/><path class="sjc1" d="M89.5 35.9v-4.6h4.4c0-.1.1-.2.1-.4 0-.1 0-.2-.1-.3h-4.4v-4.4h5.2c0-.1.1-.2.1-.4 0-.1 0-.2-.1-.3h-6v11.1h6.2c0-.1.1-.2.1-.4 0-.1 0-.2-.1-.3h-5.4z"/><path class="sjc1" d="M103.7 25.6v7.9c0 1.2.1 2 .1 2s-.3-.8-.8-1.6l-5.1-8.4s-.1-.1-.5-.1c-.3 0-.5.1-.5.1v10.9s.1.1.4.1c.3 0 .4-.1.4-.1v-7.8c0-1.5-.1-2.1-.1-2.1s.2.6.8 1.5l5.1 8.5s.2.1.5.1.5-.1.5-.1V25.6s-.1-.1-.4-.1c-.3 0-.4.1-.4.1z"/><path class="sjc1" d="M110.5 31.1c0 .2.1.4.1.4h2.8v4.3c-.4.1-1.2.2-2.1.2-2.1 0-3.6-1.1-3.6-4.9 0-3.9 1.6-5 3.6-5 1.4 0 2.4.4 2.4.4l.3-.6s-1-.5-2.8-.5c-2.8 0-4.3 1.9-4.3 5.7 0 3.8 1.6 5.7 4.3 5.7 1.8 0 3-.5 3-.5v-5.5h-3.5c-.1-.1-.2 0-.2.3z"/><path class="sjc1" d="M122.8 35.9h-5.4v-4.6h4.4c0-.1.1-.2.1-.4 0-.1 0-.2-.1-.3h-4.4v-4.4h5.2c0-.1.1-.2.1-.4 0-.1 0-.2-.1-.3h-6v11.1h6.2c0-.1.1-.2.1-.4-.1-.1-.1-.2-.1-.3z"/><path class="sjc0" d="M30.9 5.4H5.4v14.8h16.3v1.6H11c-.1.1-.2.8-.2 1.9 0 1.1.1 1.8.2 1.9h14.6v-9.3H9.3v-7h21.6c.1-.1.2-.8.2-1.9 0-1.1-.1-1.8-.2-2z"/><path class="sjc0" d="M34.6 9.3c1.1 0 1.8-.1 1.9-.2V0H0v36.6h36.6v-9.1c-.1-.1-.8-.2-1.9-.2-1.1 0-1.8.1-1.9.2v5.2H3.9V3.9h28.8v5.2c.1.1.8.2 1.9.2z"/><path class="sjc0" d="M7.4 21.8c-1.1 0-1.8.1-1.9.2v9.1h25.7V10.9h-20c-.1.1-.2.8-.2 1.9 0 1.1.1 1.8.2 1.9h16.1v12.4h-18V22c-.1-.1-.8-.2-1.9-.2z"/><path class="sjc1" d="M3 45.7c1.2 0 1.9.3 1.9.3 0 .2-.1.4-.2.6 0 0-.7-.2-1.6-.2-1.2 0-1.8.5-1.8 1.3 0 .9.9 1.1 1.9 1.4 1 .3 2 .7 2 2.1 0 1.3-.9 2.1-2.5 2.1-1.3 0-2.1-.4-2.1-.4 0-.2.1-.4.2-.6 0 0 .9.3 1.9.3 1.1 0 1.8-.5 1.8-1.3 0-.9-.7-1.1-1.5-1.4-1.1-.3-2.3-.6-2.3-2.1-.1-1.3.7-2.1 2.3-2.1z"/><path class="sjc1" d="M6.3 47.8s.1-.1.4-.1c.3 0 .4.1.4.1v3.7c0 .7.4 1.1 1.1 1.1.5 0 1.1-.3 1.4-.9v-3.9s.1-.1.4-.1c.3 0 .4.1.4.1V53s-.1.1-.4.1c-.2 0-.4-.1-.4-.1v-.6c-.4.5-1 .8-1.7.8-1 0-1.6-.6-1.6-1.5v-3.9z"/><path class="sjc1" d="M14 47.7c1.2 0 1.9.7 1.9 2.8 0 2.1-.8 2.8-1.9 2.8-.8 0-1.3-.3-1.6-.8v3.1s-.1.1-.4.1c-.3 0-.4-.1-.4-.1v-7.7s.1-.1.4-.1c.3 0 .4.1.4.1v.6c.3-.5.8-.8 1.6-.8zm-.2.6c-.9 0-1.3.7-1.3 1.5v1.3c0 .8.5 1.5 1.3 1.5 1 0 1.4-.5 1.4-2.2 0-1.6-.4-2.1-1.4-2.1z"/><path class="sjc1" d="M19.5 47.7c1.2 0 1.9.7 1.9 2.8 0 2.1-.8 2.8-1.9 2.8-.8 0-1.3-.3-1.6-.8v3.1s-.1.1-.4.1c-.3 0-.4-.1-.4-.1v-7.7s.1-.1.4-.1c.3 0 .4.1.4.1v.6c.3-.5.8-.8 1.6-.8zm-.3.6c-.9 0-1.3.7-1.3 1.5v1.3c0 .8.5 1.5 1.3 1.5 1 0 1.4-.5 1.4-2.2.1-1.6-.4-2.1-1.4-2.1z"/><path class="sjc1" d="M24.6 47.7c1.4 0 2.2.8 2.2 2.8 0 2-.8 2.8-2.2 2.8-1.4 0-2.2-.8-2.2-2.8.1-2.1.9-2.8 2.2-2.8zm0 .5c-.9 0-1.4.5-1.4 2.2 0 1.7.5 2.2 1.4 2.2.9 0 1.4-.5 1.4-2.2.1-1.7-.5-2.2-1.4-2.2z"/><path class="sjc1" d="M30.1 47.7c.4 0 .7.2.9.2 0 .3-.1.5-.3.6-.2-.1-.4-.2-.7-.2-.5 0-.9.4-1.2 1V53s-.1.1-.4.1c-.3 0-.4-.1-.4-.1v-5.2s.1-.1.4-.1c.3 0 .4.1.4.1v.8c.4-.7.9-.9 1.3-.9z"/><path class="sjc1" d="M33.2 51.3c0 1 .3 1.3 1.1 1.3.3 0 .5-.1.5-.1s.1.1.1.3v.3c-.1 0-.4.1-.7.1-1.2 0-1.6-.7-1.6-1.9v-2.9h-.8s-.1-.1-.1-.3c0-.2.1-.3.1-.3h.8v-1c.2-.1.5-.2.7-.2v1.1h1.5s.1.1.1.3c0 .2-.1.3-.1.3h-1.5v3z"/><path class="sjc1" d="M36.2 50.7c.1 1.4.6 1.9 1.6 1.9.8 0 1.2-.3 1.2-.3.1.1.3.3.3.5 0 0-.6.4-1.6.4-1.5 0-2.2-1-2.2-2.8 0-1.9.9-2.7 2.2-2.7 1.2 0 1.9.7 1.9 2 0 .6-.1 1-.1 1h-3.3zm1.4-2.4c-.8 0-1.4.5-1.4 1.9h2.6v-.6c0-.8-.3-1.3-1.2-1.3z"/><path class="sjc1" d="M44.4 45.5c.3 0 .4.1.4.1V53s-.1.1-.3.1c-.2 0-.3-.1-.3-.1l-.1-.7c-.3.5-.8.8-1.6.8-1.2 0-1.9-.7-1.9-2.8 0-2.1.8-2.8 1.9-2.8.8 0 1.3.3 1.6.8v-2.9c-.1.1 0 .1.3.1zm-1.7 2.8c-1 0-1.4.5-1.4 2.2 0 1.6.4 2.2 1.4 2.2.9 0 1.3-.8 1.3-1.5v-1.3c0-.9-.4-1.6-1.3-1.6z"/><path class="sjc1" d="M49.3 48.5c.3-.5.8-.8 1.6-.8 1.2 0 1.9.7 1.9 2.8 0 2.1-.8 2.8-1.9 2.8-.8 0-1.3-.3-1.6-.8v.5s-.1.1-.4.1c-.3 0-.4-.1-.4-.1v-7.5s.1-.1.4-.1c.3 0 .4.1.4.1v3zm1.3-.2c-.9 0-1.3.7-1.3 1.5v1.3c0 .8.5 1.5 1.3 1.5 1 0 1.4-.5 1.4-2.2.1-1.6-.4-2.1-1.4-2.1z"/><path class="sjc1" d="M56 54.1c-.3 1-.7 1.6-1.6 1.6-.3 0-.5-.1-.5-.1s-.1-.1-.1-.3c0-.2.1-.3.1-.3s.2.1.4.1c.4 0 .7-.2 1-1.1l.3-.9c-.1 0-.2 0-.2-.1l-2-5.2s.1-.1.4-.1c.3 0 .4.1.4.1l1.4 3.5c.2.6.4 1.1.4 1.1s.1-.4.3-1.1l1.2-3.5s.1-.1.4-.1c.2 0 .4.1.4.1L56 54.1z"/><path class="sjc1" d="M62.5 51.3c0 1 .3 1.3 1.1 1.3.3 0 .5-.1.5-.1s.1.1.1.3v.3c-.1 0-.4.1-.7.1-1.2 0-1.6-.7-1.6-1.9v-2.9H61s-.1-.1-.1-.3c0-.2.1-.3.1-.3h.8v-1c.2-.1.5-.2.7-.2v1.1H64s.1.1.1.3c0 .2-.1.3-.1.3h-1.5v3z"/><path class="sjc1" d="M69.1 53s-.1.1-.4.1c-.3 0-.4-.1-.4-.1v-3.7c0-.7-.4-1.1-1.1-1.1-.6 0-1.1.3-1.4.9V53s-.1.1-.4.1c-.3 0-.4-.1-.4-.1v-7.5s.1-.1.4-.1c.2 0 .4.1.4.1v2.9c.4-.5 1-.8 1.7-.8 1 0 1.6.6 1.6 1.5V53z"/><path class="sjc1" d="M71 50.7c.1 1.4.6 1.9 1.6 1.9.8 0 1.2-.3 1.2-.3.1.1.3.3.3.5 0 0-.6.4-1.6.4-1.5 0-2.2-1-2.2-2.8 0-1.9.9-2.7 2.2-2.7 1.2 0 1.9.7 1.9 2 0 .6-.1 1-.1 1H71zm1.4-2.4c-.8 0-1.4.5-1.4 1.9h2.6v-.6c0-.8-.3-1.3-1.2-1.3z"/><path class="sjc1" d="M79.8 45.9s.1-.1.4-.1c.3 0 .4.1.4.1v5.5c0 1.3-.6 1.9-1.8 1.9-.8 0-1.4-.3-1.4-.3 0-.2.1-.4.2-.6 0 0 .5.2 1.1.2.7 0 1.2-.3 1.2-1.2v-5.5z"/><path class="sjc1" d="M84 47.7c1.4 0 2.2.8 2.2 2.8 0 2-.8 2.8-2.2 2.8-1.4 0-2.2-.8-2.2-2.8.1-2.1.9-2.8 2.2-2.8zm0 .5c-.9 0-1.4.5-1.4 2.2 0 1.7.5 2.2 1.4 2.2.9 0 1.4-.5 1.4-2.2 0-1.7-.5-2.2-1.4-2.2z"/><path class="sjc1" d="M91.4 53s-.1.1-.4.1c-.3 0-.4-.1-.4-.1v-3.7c0-.7-.4-1.1-1.1-1.1-.6 0-1.1.3-1.4.9V53s-.1.1-.4.1c-.3 0-.4-.1-.4-.1v-7.5s.1-.1.4-.1c.2 0 .4.1.4.1v2.9c.4-.5 1-.8 1.7-.8 1 0 1.6.6 1.6 1.5V53z"/><path class="sjc1" d="M96.8 53s-.1.1-.4.1c-.2 0-.4-.1-.4-.1v-3.7c0-.7-.4-1.1-1.1-1.1-.6 0-1.1.3-1.4.9V53s-.1.1-.4.1c-.3 0-.4-.1-.4-.1v-5.2s.1-.1.4-.1c.2 0 .4.1.4.1v.6c.4-.5 1-.8 1.7-.8 1 0 1.6.6 1.6 1.5V53z"/><path class="sjc1" d="M102.9 45.8c1.9 0 3 .9 3 3.7 0 2.7-1 3.7-3 3.7h-2.1v-7.3h2.1zm-.1 6.7c1.4 0 2.2-.6 2.2-3s-.8-3-2.2-3h-1.3v6h1.3z"/><path class="sjc1" d="M107.7 53s-.1.1-.4.1c-.3 0-.4-.1-.4-.1v-.7s.1-.1.4-.1c.3 0 .4.1.4.1v.7z"/><path class="sjc1" d="M113.2 47.7c1.5 0 1.8.7 1.8 2.1V53s-.1.1-.3.1c-.2 0-.3-.1-.3-.1l-.1-.8c-.3.6-.9.9-1.7.9-.9 0-1.6-.6-1.6-1.6 0-1.1.6-1.6 1.9-1.6.6 0 1.1.1 1.3.1v-.5c0-.9-.4-1.2-1.2-1.2-.8 0-1.4.3-1.4.3l-.2-.2c-.1-.2-.1-.3-.1-.3.2-.1 1-.4 1.9-.4zm-.1 2.8c-.8 0-1.3.3-1.3 1.1 0 .7.4 1 1 1 .9 0 1.4-.7 1.4-1.6v-.4c-.1 0-.6-.1-1.1-.1z"/><path class="sjc1" d="M120.4 53s-.1.1-.4.1c-.3 0-.4-.1-.4-.1v-3.7c0-.7-.4-1.1-1.1-1.1-.6 0-1.1.3-1.4.9V53s-.1.1-.4.1c-.3 0-.4-.1-.4-.1v-5.2s.1-.1.4-.1c.2 0 .4.1.4.1v.6c.4-.5 1-.8 1.7-.8 1 0 1.6.6 1.6 1.5V53z"/><path class="sjc1" d="M125.5 45.5c.3 0 .4.1.4.1V53s-.1.1-.3.1c-.2 0-.3-.1-.3-.1l-.1-.7c-.3.5-.8.8-1.6.8-1.2 0-1.9-.7-1.9-2.8 0-2.1.8-2.8 1.9-2.8.8 0 1.3.3 1.6.8v-2.9c0 .1.1.1.3.1zm-1.7 2.8c-1 0-1.4.5-1.4 2.2 0 1.6.4 2.2 1.4 2.2.9 0 1.3-.8 1.3-1.5v-1.3c0-.9-.4-1.6-1.3-1.6z"/><path class="sjc1" d="M132.4 45.7c1.1 0 1.7.3 1.7.3 0 .2-.1.4-.2.6 0 0-.6-.3-1.4-.3-1.3 0-2.1.7-2.1 3.1 0 2.4.9 3.1 2.1 3.1.9 0 1.5-.3 1.5-.3.1.1.2.4.2.6 0 0-.6.3-1.8.3-1.9 0-2.8-1.2-2.8-3.8 0-2.3.9-3.6 2.8-3.6z"/><path class="sjc1" d="M137.1 47.7c1.5 0 1.8.7 1.8 2.1V53s-.1.1-.3.1c-.2 0-.3-.1-.3-.1l-.1-.8c-.3.6-.9.9-1.7.9-.9 0-1.6-.6-1.6-1.6 0-1.1.6-1.6 1.9-1.6.6 0 1.1.1 1.3.1v-.5c0-.9-.4-1.2-1.2-1.2-.8 0-1.4.3-1.4.3l-.2-.2c-.1-.2-.1-.3-.1-.3.2-.1 1-.4 1.9-.4zm-.1 2.8c-.8 0-1.3.3-1.3 1.1 0 .7.4 1 1 1 .9 0 1.4-.7 1.4-1.6v-.4c-.1 0-.6-.1-1.1-.1z"/><path class="sjc1" d="M141.4 51.3c0 1 .3 1.3 1.1 1.3.3 0 .5-.1.5-.1s.1.1.1.3v.3c-.1 0-.4.1-.7.1-1.2 0-1.6-.7-1.6-1.9v-2.9h-.8s-.1-.1-.1-.3c0-.2.1-.3.1-.3h.8v-1c.2-.1.5-.2.7-.2v1.1h1.5s.1.1.1.3c0 .2-.1.3-.1.3h-1.5v3z"/><path class="sjc1" d="M148 53s-.1.1-.4.1c-.3 0-.4-.1-.4-.1v-3.7c0-.7-.4-1.1-1.1-1.1-.6 0-1.1.3-1.4.9V53s-.1.1-.4.1c-.3 0-.4-.1-.4-.1v-7.5s.1-.1.4-.1c.2 0 .4.1.4.1v2.9c.4-.5 1-.8 1.7-.8 1 0 1.6.6 1.6 1.5V53z"/><path class="sjc1" d="M149.9 50.7c.1 1.4.6 1.9 1.6 1.9.8 0 1.2-.3 1.2-.3.1.1.3.3.3.5 0 0-.6.4-1.6.4-1.5 0-2.2-1-2.2-2.8 0-1.9.9-2.7 2.2-2.7 1.2 0 1.9.7 1.9 2 0 .6-.1 1-.1 1h-3.3zm1.4-2.4c-.8 0-1.4.5-1.4 1.9h2.6v-.6c0-.8-.3-1.3-1.2-1.3z"/><path class="sjc1" d="M156.5 47.7c.4 0 .7.2.9.2 0 .3-.1.5-.3.6-.2-.1-.4-.2-.7-.2-.5 0-.9.4-1.2 1V53s-.1.1-.4.1c-.3 0-.4-.1-.4-.1v-5.2s.1-.1.4-.1c.3 0 .4.1.4.1v.8c.3-.7.9-.9 1.3-.9z"/><path class="sjc1" d="M159.1 46.6s-.1.1-.4.1c-.3 0-.4-.1-.4-.1v-.7s.1-.1.4-.1c.3 0 .4.1.4.1v.7zM159 53s-.1.1-.4.1c-.3 0-.4-.1-.4-.1v-5.2s.1-.1.4-.1c.2 0 .4.1.4.1V53z"/><path class="sjc1" d="M164.4 53s-.1.1-.4.1c-.3 0-.4-.1-.4-.1v-3.7c0-.7-.4-1.1-1.1-1.1-.6 0-1.1.3-1.4.9V53s-.1.1-.4.1c-.3 0-.4-.1-.4-.1v-5.2s.1-.1.4-.1c.2 0 .4.1.4.1v.6c.4-.5 1-.8 1.7-.8 1 0 1.6.6 1.6 1.5V53z"/><path class="sjc1" d="M166.4 50.7c.1 1.4.6 1.9 1.6 1.9.8 0 1.2-.3 1.2-.3.1.1.3.3.3.5 0 0-.6.4-1.6.4-1.5 0-2.2-1-2.2-2.8 0-1.9.9-2.7 2.2-2.7 1.2 0 1.9.7 1.9 2 0 .6-.1 1-.1 1h-3.3zm1.4-2.4c-.8 0-1.4.5-1.4 1.9h2.6v-.6c0-.8-.4-1.3-1.2-1.3z"/><path class="sjc1" d="M177.5 45.8s.1.1.1.3c0 .2-.1.3-.1.3h-2V53s-.1.1-.4.1c-.3 0-.4-.1-.4-.1v-6.6h-2s-.1-.1-.1-.3c0-.2.1-.3.1-.3h4.8z"/><path class="sjc1" d="M178.5 53s-.1.1-.4.1c-.3 0-.4-.1-.4-.1v-.7s.1-.1.4-.1c.3 0 .4.1.4.1v.7z"/><path class="sjc1" d="M7 58.6c.3 0 .5.1.5.1v7.2s-.1.1-.4.1c-.2 0-.4-.1-.4-.1v-4.3c0-.9 0-1.7.1-2-.1.3-.4.9-.7 1.5l-1.7 3h-.5c-.5-1-1.1-2-1.6-3-.3-.6-.6-1.2-.7-1.5.1.3.1 1.1.1 2V66s-.1.1-.3.1c-.2 0-.3-.1-.3-.1v-7.2s.2-.1.5-.1c.2 0 .5.1.5.1L3.9 62c.3.5.5.9.5 1.1 0-.1.1-.4.3-.8.7-1.2 1.3-2.4 2-3.6 0-.1.1-.1.3-.1z"/><path class="sjc1" d="M10.9 60.5c1.5 0 1.8.7 1.8 2.1v3.3s-.1.1-.3.1c-.2 0-.3-.1-.3-.1l-.1-.8c-.3.6-.9.9-1.7.9-.9 0-1.6-.6-1.6-1.6 0-1.1.6-1.6 1.9-1.6.6 0 1.1.1 1.3.1v-.5c0-.9-.4-1.2-1.2-1.2-.8 0-1.4.3-1.4.3l-.2-.2C9 61.1 9 61 9 61c.1-.2.9-.5 1.9-.5zm-.1 2.8c-.8 0-1.3.3-1.3 1.1 0 .7.4 1 1 1 .9 0 1.4-.7 1.4-1.6v-.4c-.1 0-.6-.1-1.1-.1z"/><path class="sjc1" d="M14.7 63.2c0 1.5.5 2.1 1.6 2.1.6 0 1-.2 1-.2.1.1.2.3.2.5 0 0-.5.3-1.4.3-1.4 0-2.2-1-2.2-2.8 0-1.8.8-2.8 2.2-2.8.9 0 1.3.2 1.3.2 0 .2-.1.4-.2.5 0 0-.4-.2-.9-.2-1.2.3-1.6 1-1.6 2.4z"/><path class="sjc1" d="M21.3 58.6c.3 0 .4.1.4.1l2.7 7.2s-.1.1-.4.1c-.2 0-.4-.1-.4-.1l-.7-1.9h-3.2l-.7 1.9s-.1.1-.4.1c-.2 0-.4-.1-.4-.1l2.7-7.2s.2-.1.4-.1zm0 .9s-.1.3-.2.7l-1.2 3.1h2.8l-1.2-3.1c-.1-.4-.2-.7-.2-.7z"/><path class="sjc1" d="M27.5 60.5c.4 0 .7.2.9.2 0 .3-.1.5-.3.6-.2-.1-.4-.2-.7-.2-.5 0-.9.4-1.2 1v3.7s-.1.1-.4.1c-.3 0-.4-.1-.4-.1v-5.2s.1-.1.4-.1c.3 0 .4.1.4.1v.8c.3-.7.9-.9 1.3-.9z"/><path class="sjc1" d="M30.6 64.1c0 1 .3 1.3 1.1 1.3.3 0 .5-.1.5-.1s.1.1.1.3v.3c-.1 0-.4.1-.7.1-1.2 0-1.6-.7-1.6-1.9v-2.9h-.8s-.1-.1-.1-.3c0-.2.1-.3.1-.3h.8v-1c.2-.1.5-.2.7-.2v1.1h1.5s.1.1.1.3c0 .2-.1.3-.1.3h-1.5v3z"/><path class="sjc1" d="M37.2 65.8s-.1.1-.4.1c-.3 0-.4-.1-.4-.1v-3.7c0-.7-.4-1.1-1.1-1.1-.6 0-1.1.3-1.4.9v3.9s-.1.1-.4.1c-.3 0-.4-.1-.4-.1v-7.5s.1-.1.4-.1c.2 0 .4.1.4.1v2.9c.4-.5 1-.8 1.7-.8 1 0 1.6.6 1.6 1.5v3.9z"/><path class="sjc1" d="M38.5 60.6s.1-.1.4-.1c.3 0 .4.1.4.1v3.7c0 .7.4 1.1 1.1 1.1.5 0 1.1-.3 1.4-.9v-3.9s.1-.1.4-.1c.3 0 .4.1.4.1v5.2s-.1.1-.4.1c-.2 0-.4-.1-.4-.1v-.6c-.4.5-1 .8-1.7.8-1 0-1.6-.6-1.6-1.5v-3.9z"/><path class="sjc1" d="M46 60.5c.4 0 .7.2.9.2 0 .3-.1.5-.3.6-.2-.1-.4-.2-.7-.2-.5 0-.9.4-1.2 1v3.7s-.1.1-.4.1c-.3 0-.4-.1-.4-.1v-5.2s.1-.1.4-.1c.3 0 .4.1.4.1v.8c.4-.7.9-.9 1.3-.9z"/><path class="sjc1" d="M51 65.8s-.1.1-.4.1c-.3 0-.4-.1-.4-.1v-7.2h4c0 .1.1.2.1.3 0 .1 0 .2-.1.3H51V62h2.8c0 .1.1.2.1.3 0 .1 0 .3-.1.3H51v3.2z"/><path class="sjc1" d="M57.2 60.5c1.4 0 2.2.8 2.2 2.8 0 2-.8 2.8-2.2 2.8-1.4 0-2.2-.8-2.2-2.8 0-2.1.8-2.8 2.2-2.8zm0 .5c-.9 0-1.4.5-1.4 2.2 0 1.7.5 2.2 1.4 2.2.9 0 1.4-.5 1.4-2.2 0-1.7-.5-2.2-1.4-2.2z"/><path class="sjc1" d="M60.6 60.6s.1-.1.4-.1c.3 0 .4.1.4.1v3.7c0 .7.4 1.1 1.1 1.1.5 0 1.1-.3 1.4-.9v-3.9s.1-.1.4-.1c.3 0 .4.1.4.1v5.2s-.1.1-.4.1c-.2 0-.4-.1-.4-.1v-.6c-.4.5-1 .8-1.7.8-1 0-1.6-.6-1.6-1.5v-3.9z"/><path class="sjc1" d="M69.9 65.8s-.1.1-.4.1c-.3 0-.4-.1-.4-.1v-3.7c0-.7-.4-1.1-1.1-1.1-.6 0-1.1.3-1.4.9v3.9s-.1.1-.4.1c-.3 0-.4-.1-.4-.1v-5.2s.1-.1.4-.1c.2 0 .4.1.4.1v.6c.4-.5 1-.8 1.7-.8 1 0 1.6.6 1.6 1.5v3.9z"/><path class="sjc1" d="M75 58.3c.3 0 .4.1.4.1v7.5s-.1.1-.3.1c-.2 0-.3-.1-.3-.1l-.1-.7c-.3.5-.8.8-1.6.8-1.2 0-1.9-.7-1.9-2.8 0-2.1.8-2.8 1.9-2.8.8 0 1.3.3 1.6.8v-2.9h.3zm-1.7 2.8c-1 0-1.4.5-1.4 2.2 0 1.6.4 2.2 1.4 2.2.9 0 1.3-.8 1.3-1.5v-1.3c0-.9-.4-1.6-1.3-1.6z"/><path class="sjc1" d="M78.6 60.5c1.5 0 1.8.7 1.8 2.1v3.3s-.1.1-.3.1c-.2 0-.3-.1-.3-.1l-.1-.8c-.3.6-.9.9-1.7.9-.9 0-1.6-.6-1.6-1.6 0-1.1.6-1.6 1.9-1.6.6 0 1.1.1 1.3.1v-.5c0-.9-.4-1.2-1.2-1.2-.8 0-1.4.3-1.4.3l-.2-.2c-.1-.2-.1-.3-.1-.3.2-.2.9-.5 1.9-.5zm-.1 2.8c-.8 0-1.3.3-1.3 1.1 0 .7.4 1 1 1 .9 0 1.4-.7 1.4-1.6v-.4c-.1 0-.6-.1-1.1-.1z"/><path class="sjc1" d="M82.8 64.1c0 1 .3 1.3 1.1 1.3.3 0 .5-.1.5-.1s.1.1.1.3v.3c-.1 0-.4.1-.7.1-1.2 0-1.6-.7-1.6-1.9v-2.9h-.8s-.1-.1-.1-.3c0-.2.1-.3.1-.3h.8v-1c.2-.1.5-.2.7-.2v1.1h1.5s.1.1.1.3c0 .2-.1.3-.1.3h-1.5v3z"/><path class="sjc1" d="M86.2 59.4s-.1.1-.4.1c-.3 0-.4-.1-.4-.1v-.7s.1-.1.4-.1c.3 0 .4.1.4.1v.7zm0 6.4s-.1.1-.4.1c-.3 0-.4-.1-.4-.1v-5.2s.1-.1.4-.1c.2 0 .4.1.4.1v5.2z"/><path class="sjc1" d="M89.6 60.5c1.4 0 2.2.8 2.2 2.8 0 2-.8 2.8-2.2 2.8-1.4 0-2.2-.8-2.2-2.8 0-2.1.8-2.8 2.2-2.8zm0 .5c-.9 0-1.4.5-1.4 2.2 0 1.7.5 2.2 1.4 2.2.9 0 1.4-.5 1.4-2.2 0-1.7-.6-2.2-1.4-2.2z"/><path class="sjc1" d="M96.9 65.8s-.1.1-.4.1c-.3 0-.4-.1-.4-.1v-3.7c0-.7-.4-1.1-1.1-1.1-.6 0-1.1.3-1.4.9v3.9s-.1.1-.4.1c-.3 0-.4-.1-.4-.1v-5.2s.1-.1.4-.1c.2 0 .4.1.4.1v.6c.4-.5 1-.8 1.7-.8 1 0 1.6.6 1.6 1.5v3.9z"/></svg>