<svg id="Layer_1" xmlns="http://www.w3.org/2000/svg" viewBox="0 0 135.3 50"><path d="M83.7 12.3h-2.8s-.1-.1-.1-.3c0-.2.1-.3.1-.3h2.8V8.9s.1-.1.3-.1c.2 0 .3.1.3.1v2.8h2.8s.1.1.1.3c0 .2-.1.3-.1.3h-2.8v2.8s-.1.1-.3.1c-.2 0-.3-.1-.3-.1v-2.8z"/><path d="M38.1 11.3c-1.2-.4-2.3-.6-2.3-1.5s.6-1.3 1.9-1.3c1.1 0 2 .3 2 .3.3-.3.5-.9.5-1.3 0 0-1-.4-2.7-.4-2.3 0-3.3 1.1-3.3 2.8 0 2.1 1.9 2.4 3.3 2.9.8.3 1.4.6 1.4 1.3 0 .8-.5 1.3-1.8 1.3-1.2 0-2.5-.4-2.5-.4-.3.4-.4.9-.4 1.4 0 0 1.1.6 3 .6 2.3 0 3.4-1 3.4-2.9-.1-1.8-1.3-2.4-2.5-2.8z"/><path d="M45.3 7.2c-.6 0-1 .1-1 .1l-3.2 9.3s.3.1.8.1.8-.1.8-.1l.7-2.1H47l.7 2.1s.3.1.8.1c.6 0 .9-.1.9-.1l-3.2-9.3c.1 0-.3-.1-.9-.1zm-1.5 6l.9-2.7c.3-.8.5-1.5.5-1.5h.1s.1.7.4 1.5l.9 2.7h-2.8z"/><path d="M50.6 7.2v9.4s.3.1.8.1c.6 0 .9-.1.9-.1v-3.8h3.3c.1-.2.1-.5.1-.7 0-.2 0-.5-.1-.7h-3.3V8.6H56c.1-.2.1-.5.1-.7 0-.2-.1-.5-.1-.7h-5.4z"/><path d="M59.1 15.4v-2.8h3.1c.1-.2.1-.5.1-.7 0-.2-.1-.5-.1-.7h-3.1V8.6h3.8c.1-.3.1-.5.1-.8 0-.2-.1-.4-.1-.6h-5.5v9.6H63c.1-.2.1-.5.1-.7 0-.2-.1-.5-.1-.7h-3.9z"/><path d="M64.2 7.2s-.1.3-.1.7c0 .4.1.7.1.7h2.4v8s.2.1.8.1c.5 0 .8-.1.8-.1v-8h2.3s.1-.3.1-.7c0-.4-.1-.7-.1-.7h-6.3z"/><path d="M78.8 7.2c-.6 0-.9.1-.9.1l-2.2 3.8-2.2-3.8s-.3-.1-1-.1-1 .1-1 .1l3.2 5.5v3.8s.3.1.9.1c.5 0 .8-.1.8-.1v-3.9l3.3-5.5c0 .1-.4 0-.9 0z"/><path d="M91.3 7.3v6.8c0 1-.7 1.3-1.5 1.3-.6 0-1.2-.2-1.2-.2-.3.3-.5.8-.5 1.3 0 0 .9.4 2 .4 1.6 0 2.8-.9 2.8-2.9V7.3s-.3-.1-.8-.1-.8.1-.8.1z"/><path d="M100.1 7.3v6.4c0 1.1-.6 1.8-1.8 1.8-1.1 0-1.8-.7-1.8-1.8V7.3s-.3-.1-.9-.1c-.6 0-.8.1-.8.1v6.1c0 2.2 1.4 3.5 3.5 3.5s3.5-1.2 3.5-3.5V7.3s-.3-.1-.8-.1c-.6 0-.9.1-.9.1z"/><path d="M107.2 11.3c-1.2-.4-2.3-.6-2.3-1.5s.6-1.3 1.9-1.3c1.1 0 2 .3 2 .3.3-.3.5-.9.5-1.3 0 0-1-.4-2.7-.4-2.3 0-3.3 1.1-3.3 2.8 0 2.1 1.9 2.4 3.3 2.9.8.3 1.4.6 1.4 1.3 0 .8-.5 1.3-1.8 1.3-1.2 0-2.5-.4-2.5-.4-.3.4-.4.9-.4 1.4 0 0 1.1.6 3 .6 2.3 0 3.4-1 3.4-2.9-.1-1.8-1.3-2.4-2.5-2.8z"/><path d="M110.5 7.2s-.1.3-.1.7c0 .4.1.7.1.7h2.4v8s.2.1.8.1c.5 0 .8-.1.8-.1v-8h2.3s.1-.3.1-.7c0-.4-.1-.7-.1-.7h-6.3z"/><path d="M118.3 7.3v9.3s.2.1.8.1c.5 0 .8-.1.8-.1V7.3s-.3-.1-.9-.1c-.5 0-.7.1-.7.1z"/><path d="M125.7 15.4c-1.4 0-2.4-.7-2.4-3.4s1-3.5 2.4-3.5c.8 0 1.6.3 1.6.3.3-.3.5-.7.5-1.3 0 0-.8-.5-2.3-.5-2.6 0-4 1.7-4 4.9s1.4 4.9 4 4.9c1.5 0 2.4-.5 2.4-.5 0-.5-.2-1-.5-1.3.1.1-.7.4-1.7.4z"/><path d="M134.8 15.4h-3.9v-2.8h3.1c.1-.2.1-.5.1-.7 0-.2-.1-.5-.1-.7h-3.1V8.6h3.8c.1-.2.1-.5.1-.7 0-.2-.1-.4-.1-.6h-5.5v9.6h5.6c.1-.2.1-.5.1-.7 0-.4 0-.6-.1-.8z"/><path d="M36.8 27.3c-1.6 0-2.6-.8-2.6-3.7 0-2.9 1-3.8 2.6-3.8 1 0 1.7.3 1.7.3.1-.1.2-.3.2-.5 0 0-.7-.4-1.9-.4-2.1 0-3.1 1.5-3.1 4.3 0 2.9 1 4.3 3.1 4.3 1.4 0 2.1-.4 2.1-.4 0-.2-.1-.4-.2-.5-.1.1-.8.4-1.9.4z"/><path d="M45.2 19.4v3.8h-4.3v-3.8h-.6v8.3h.6v-4h4.3v4h.6v-8.3h-.3c-.2-.1-.3 0-.3 0z"/><path d="M50.7 19.3h-.3l-3.2 8.3h.6l.9-2.4h3.9l.9 2.4h.6L51 19.4s-.1-.1-.3-.1zm-1.8 5.4l1.6-4c.1-.4.2-.6.2-.6s0 .2.2.6l1.6 4h-3.6z"/><path d="M56.2 27.1v-7.8h-.6v8.3H60V27h-3.8z"/><path d="M62 27.1v-7.8h-.6v8.3h4.4V27H62z"/><path d="M67.8 27.2v-3.5h3.4v-.6h-3.4v-3.3h3.9v-.6h-4.5v8.4h4.7V27h-4.1z"/><path d="M78.6 19.4v7.5s-.2-.6-.6-1.2l-3.8-6.3h-.7v8.3h.6v-7.5s.2.5.6 1.1l3.9 6.4h.7v-8.3H79c-.3-.1-.4 0-.4 0z"/><path d="M83.7 23.5v.3h2.1v3.3c-.3.1-.9.2-1.6.2-1.6 0-2.7-.8-2.7-3.7 0-2.9 1.2-3.8 2.7-3.8 1 0 1.8.3 1.8.3.1-.1.2-.3.2-.5 0 0-.8-.4-2.1-.4-2.1 0-3.3 1.5-3.3 4.3 0 2.9 1.2 4.3 3.3 4.3 1.4 0 2.3-.4 2.3-.4v-4.2h-2.7c.1.1 0 .1 0 .3z"/><path d="M93 27.2h-4v-3.5h3.4v-.6H89v-3.3h3.9v-.6h-4.5v8.4H93v-.3c.1 0 0-.1 0-.1z"/><path d="M23.4 4.1H4.1v11.2h12.4v1.2H8.4c-.1.1-.2.6-.2 1.5s.1 1.4.2 1.5h11v-7.1H7.1V7.1h16.3c.1-.1.2-.6.2-1.5s-.1-1.4-.2-1.5z"/><path d="M26.2 7.1c.9 0 1.4-.1 1.5-.2V0H0v27.7h27.7v-6.9c-.1-.1-.6-.2-1.5-.2s-1.4.1-1.5.2v4H2.9V2.9h21.8v4c.2.1.7.2 1.5.2z"/><path d="M5.6 16.5c-.9 0-1.4.1-1.5.2v6.9h19.4V8.2H8.4c0 .2-.1.7-.1 1.5 0 .9.1 1.4.2 1.5h12.2v9.4H7.1v-4c-.1 0-.6-.1-1.5-.1z"/><path d="M2.3 34.6c.9 0 1.5.2 1.5.2 0 .2-.1.3-.2.4 0 0-.6-.2-1.2-.2-.9 0-1.3.4-1.3 1 0 .7.7.9 1.4 1.1.7.2 1.5.5 1.5 1.6 0 1-.7 1.6-1.9 1.6-1 0-1.6-.3-1.6-.3 0-.2.1-.3.1-.5 0 0 .7.2 1.4.2.9 0 1.3-.4 1.3-1s-.5-.9-1.1-1c-.8-.3-1.8-.5-1.8-1.6.1-.9.7-1.5 1.9-1.5z"/><path d="M4.8 36.2h.6V39c0 .5.3.8.8.8.4 0 .8-.3 1.1-.7v-2.9h.6v4h-.6v-.5c-.3.4-.7.6-1.3.6-.8 0-1.2-.5-1.2-1.2v-2.9z"/><path d="M10.6 36.1c.9 0 1.5.5 1.5 2.1s-.6 2.1-1.5 2.1c-.6 0-1-.2-1.2-.6V42h-.6v-5.8h.6v.5c.2-.4.6-.6 1.2-.6zm-.2.5c-.6 0-1 .6-1 1.1v1c0 .6.3 1.1 1 1.1.8 0 1.1-.4 1.1-1.6 0-1.2-.3-1.6-1.1-1.6z"/><path d="M14.8 36.1c.9 0 1.5.5 1.5 2.1s-.6 2.1-1.5 2.1c-.6 0-1-.2-1.2-.6V42H13v-5.8h.6v.5c.2-.4.6-.6 1.2-.6zm-.2.5c-.6 0-1 .6-1 1.1v1c0 .6.3 1.1 1 1.1.8 0 1.1-.4 1.1-1.6 0-1.2-.4-1.6-1.1-1.6z"/><path d="M18.7 36.1c1 0 1.6.6 1.6 2.1s-.6 2.1-1.6 2.1-1.6-.6-1.6-2.1c-.1-1.5.5-2.1 1.6-2.1zm0 .4c-.7 0-1.1.4-1.1 1.7 0 1.3.4 1.7 1.1 1.7.7 0 1.1-.4 1.1-1.7-.1-1.3-.5-1.7-1.1-1.7z"/><path d="M22.8 36.1c.3 0 .6.1.7.2 0 .2-.1.3-.3.5-.2-.1-.3-.2-.5-.2-.4 0-.7.3-.9.8v2.8h-.6v-4h.6v.6c.3-.5.7-.7 1-.7z"/><path d="M25.2 38.8c0 .7.2 1 .8 1h.4v.4c-.1 0-.3.1-.5.1-.9 0-1.2-.5-1.2-1.5v-2.2H24v-.4h.6v-.7c.1-.1.4-.1.6-.1v.9h1.1v.4h-1.1v2.1z"/><path d="M27.4 38.4c.1 1.1.4 1.4 1.2 1.4.6 0 .9-.3.9-.3.1.1.2.2.2.4 0 0-.4.3-1.2.3-1.1 0-1.7-.7-1.7-2.1 0-1.5.7-2.1 1.7-2.1.9 0 1.4.6 1.4 1.5 0 .5-.1.8-.1.8h-2.4zm1.1-1.8c-.6 0-1 .4-1.1 1.4h2v-.4c0-.6-.2-1-.9-1z"/><path d="M33.6 34.5h.3v5.7h-.4l-.1-.5c-.2.4-.6.6-1.2.6-.9 0-1.5-.5-1.5-2.1s.6-2.1 1.5-2.1c.6 0 1 .2 1.2.6v-2.2h.2zm-1.2 2.1c-.7 0-1.1.4-1.1 1.6 0 1.2.3 1.6 1.1 1.6.7 0 1-.6 1-1.1v-1c-.1-.6-.4-1.1-1-1.1z"/><path d="M37.4 36.7c.2-.4.6-.6 1.2-.6.9 0 1.5.5 1.5 2.1s-.6 2.1-1.5 2.1c-.6 0-1-.2-1.2-.6v.5h-.6v-5.7h.6v2.2zm1-.1c-.6 0-1 .6-1 1.1v1c0 .6.3 1.1 1 1.1.8 0 1.1-.4 1.1-1.6-.1-1.2-.4-1.6-1.1-1.6z"/><path d="M42.4 41c-.2.7-.5 1.2-1.2 1.2-.2 0-.4-.1-.4-.1v-.2c0-.1 0-.2.1-.2h.3c.3 0 .5-.1.7-.8l.2-.6h-.2l-1.5-4h.6l1 2.6c.2.5.3.8.3.8s.1-.3.2-.8l.9-2.6h.6L42.4 41z"/><path d="M47.4 38.8c0 .7.2 1 .8 1h.4v.4c-.1 0-.3.1-.5.1-.9 0-1.2-.5-1.2-1.5v-2.2h-.6v-.4h.6v-.7c.1-.1.4-.1.6-.1v.9h1.1v.4h-1.1v2.1z"/><path d="M52.3 40.2h-.6v-2.8c0-.5-.3-.8-.8-.8-.4 0-.8.3-1.1.7v2.9h-.6v-5.7h.6v2.2c.3-.4.7-.6 1.3-.6.8 0 1.2.5 1.2 1.2v2.9z"/><path d="M53.8 38.4c.1 1.1.4 1.4 1.2 1.4.6 0 .9-.3.9-.3.1.1.2.2.2.4 0 0-.4.3-1.2.3-1.1 0-1.7-.7-1.7-2.1 0-1.5.7-2.1 1.7-2.1.9 0 1.4.6 1.4 1.5 0 .5-.1.8-.1.8h-2.4zm1.1-1.8c-.6 0-1 .4-1.1 1.4h2v-.4c0-.6-.3-1-.9-1z"/><path d="M60.4 34.7h.6v4.1c0 1-.5 1.4-1.4 1.4-.6 0-1.1-.2-1.1-.2 0-.2 0-.3.2-.4 0 0 .4.2.8.2.5 0 .9-.2.9-.9v-4.2z"/><path d="M63.7 36.1c1 0 1.6.6 1.6 2.1s-.6 2.1-1.6 2.1-1.6-.6-1.6-2.1c-.1-1.5.5-2.1 1.6-2.1zm0 .4c-.7 0-1.1.4-1.1 1.7 0 1.3.4 1.7 1.1 1.7.7 0 1.1-.4 1.1-1.7-.1-1.3-.5-1.7-1.1-1.7z"/><path d="M69.2 40.2h-.6v-2.8c0-.5-.3-.8-.8-.8-.4 0-.8.3-1.1.7v2.9h-.6v-5.7h.6v2.2c.3-.4.7-.6 1.3-.6.8 0 1.2.5 1.2 1.2v2.9z"/><path d="M73.3 40.2h-.6v-2.8c0-.5-.3-.8-.8-.8-.4 0-.8.3-1.1.7v2.9h-.6v-4h.6v.5c.3-.4.7-.6 1.3-.6.8 0 1.2.5 1.2 1.2v2.9z"/><path d="M77.9 34.7c1.4 0 2.2.7 2.2 2.8 0 2.1-.8 2.8-2.2 2.8h-1.6v-5.5h1.6zm0 5c1.1 0 1.7-.4 1.7-2.3s-.6-2.3-1.7-2.3h-1v4.6h1z"/><path d="M81.6 40.2H81v-.6h.6v.6z"/><path d="M85.8 36.1c1.1 0 1.4.5 1.4 1.6v2.5h-.4l-.1-.6c-.2.4-.7.7-1.3.7-.7 0-1.2-.4-1.2-1.2 0-.8.5-1.2 1.5-1.2.4 0 .8 0 1 .1v-.4c0-.7-.3-.9-.9-.9-.6 0-1.1.2-1.1.2s-.1-.1-.1-.2v-.2c-.1-.1.4-.4 1.2-.4zm-.1 2.2c-.6 0-1 .2-1 .8 0 .6.3.8.8.8.7 0 1.1-.5 1.1-1.2v-.3c-.2-.1-.5-.1-.9-.1z"/><path d="M91.2 40.2h-.6v-2.8c0-.5-.3-.8-.8-.8-.4 0-.8.3-1.1.7v2.9h-.6v-4h.6v.5c.3-.4.7-.6 1.3-.6.8 0 1.2.5 1.2 1.2v2.9z"/><path d="M95.1 34.5h.3v5.7H95l-.1-.5c-.2.4-.6.6-1.2.6-.9 0-1.5-.5-1.5-2.1s.6-2.1 1.5-2.1c.6 0 1 .2 1.2.6v-2.2h.2zm-1.3 2.1c-.7 0-1.1.4-1.1 1.6 0 1.2.3 1.6 1.1 1.6.7 0 1-.6 1-1.1v-1c0-.6-.3-1.1-1-1.1z"/><path d="M100.3 34.6c.8 0 1.3.3 1.3.3 0 .2-.1.3-.2.4 0 0-.4-.2-1.1-.2-1 0-1.6.5-1.6 2.4 0 1.8.7 2.3 1.6 2.3.7 0 1.1-.2 1.1-.2.1.1.2.3.2.4 0 0-.5.3-1.4.3-1.4 0-2.2-.9-2.2-2.8.2-1.9.9-2.9 2.3-2.9z"/><path d="M103.9 36.1c1.1 0 1.4.5 1.4 1.6v2.5h-.4l-.1-.6c-.2.4-.7.7-1.3.7-.7 0-1.2-.4-1.2-1.2 0-.8.5-1.2 1.5-1.2.4 0 .8 0 1 .1v-.4c0-.7-.3-.9-.9-.9-.6 0-1.1.2-1.1.2s-.1-.1-.1-.2v-.2c-.1-.1.5-.4 1.2-.4zm-.1 2.2c-.6 0-1 .2-1 .8 0 .6.3.8.8.8.7 0 1.1-.5 1.1-1.2v-.3c-.1-.1-.5-.1-.9-.1z"/><path d="M107.1 38.8c0 .7.2 1 .8 1h.4v.4c-.1 0-.3.1-.5.1-.9 0-1.2-.5-1.2-1.5v-2.2h-.6v-.4h.6v-.7c.1-.1.4-.1.6-.1v.9h1.1v.4h-1.1v2.1z"/><path d="M112.1 40.2h-.6v-2.8c0-.5-.3-.8-.8-.8-.4 0-.8.3-1.1.7v2.9h-.6v-5.7h.6v2.2c.3-.4.7-.6 1.3-.6.8 0 1.2.5 1.2 1.2v2.9z"/><path d="M113.6 38.4c.1 1.1.4 1.4 1.2 1.4.6 0 .9-.3.9-.3.1.1.2.2.2.4 0 0-.4.3-1.2.3-1.1 0-1.7-.7-1.7-2.1 0-1.5.7-2.1 1.7-2.1.9 0 1.4.6 1.4 1.5 0 .5-.1.8-.1.8h-2.4zm1-1.8c-.6 0-1 .4-1.1 1.4h2v-.4c0-.6-.2-1-.9-1z"/><path d="M118.5 36.1c.3 0 .6.1.7.2 0 .2-.1.3-.3.5-.2-.1-.3-.2-.5-.2-.4 0-.7.3-.9.8v2.8h-.6v-4h.6v.6c.3-.5.7-.7 1-.7z"/><path d="M120.5 35.3h-.6v-.6h.6v.6zm0 4.9h-.6v-4h.6v4z"/><path d="M124.6 40.2h-.6v-2.8c0-.5-.3-.8-.8-.8-.4 0-.8.3-1.1.7v2.9h-.6v-4h.6v.5c.3-.4.7-.6 1.3-.6.8 0 1.2.5 1.2 1.2v2.9z"/><path d="M126 38.4c.1 1.1.4 1.4 1.2 1.4.6 0 .9-.3.9-.3.1.1.2.2.2.4 0 0-.4.3-1.2.3-1.1 0-1.7-.7-1.7-2.1 0-1.5.7-2.1 1.7-2.1.9 0 1.4.6 1.4 1.5 0 .5-.1.8-.1.8H126zm1.1-1.8c-.6 0-1 .4-1.1 1.4h2v-.4c0-.6-.2-1-.9-1z"/><path d="M134.5 34.7v.5H133v5h-.6v-5h-1.5v-.5h3.6z"/><path d="M135.3 40.2h-.6v-.6h.6v.6z"/><path d="M5.3 44.4h.4v5.4h-.6V45c-.1.2-.3.7-.5 1.1l-1.3 2.3h-.4c-.4-.8-.8-1.5-1.2-2.3-.2-.5-.5-.9-.5-1.1 0 .2.1.8.1 1.5v3.3H.7v-5.4h.6l1.3 2.4c.2.4.3.7.4.9 0-.1.1-.3.3-.6l1.5-2.7h.5z"/><path d="M8.2 45.8c1.1 0 1.4.5 1.4 1.6v2.5h-.4l-.1-.6c-.2.5-.7.7-1.3.7-.7 0-1.2-.4-1.2-1.2s.5-1.2 1.5-1.2c.4 0 .8 0 1 .1v-.4c0-.7-.3-.9-.9-.9-.6 0-1.1.2-1.1.2s-.1-.1-.1-.2v-.2c-.1-.1.5-.4 1.2-.4zm0 2.2c-.6 0-1 .2-1 .8 0 .6.3.8.8.8.7 0 1.1-.5 1.1-1.2V48h-.9z"/><path d="M11.1 47.9c0 1.1.4 1.6 1.2 1.6.4 0 .7-.1.7-.1.1.1.2.2.2.4 0 0-.4.2-1.1.2-1.1 0-1.7-.7-1.7-2.1 0-1.4.6-2.1 1.7-2.1.7 0 1 .2 1 .2 0 .2-.1.3-.2.4 0 0-.3-.1-.7-.1-.7 0-1.1.5-1.1 1.6z"/><path d="M16.2 44.4h.3l2 5.4h-.6l-.6-1.5h-2.5l-.6 1.5h-.6l2-5.4h.6zm-.1.6s0 .2-.2.5l-.9 2.4h2.1l-.9-2.4c0-.2-.1-.5-.1-.5z"/><path d="M20.8 45.8c.3 0 .6.1.7.2 0 .2-.1.3-.3.5-.2-.1-.3-.2-.5-.2-.4 0-.7.3-.9.8v2.8h-.6v-4h.6v.6c.3-.5.7-.7 1-.7z"/><path d="M23.2 48.5c0 .7.2 1 .8 1h.4v.4c-.1 0-.3.1-.5.1-.9 0-1.2-.5-1.2-1.5v-2.2H22v-.4h.6v-.7c.2-.2.4-.2.6-.2v.9h1.1v.4h-1.1v2.2z"/><path d="M28.2 49.9h-.6v-2.8c0-.5-.3-.8-.8-.8-.4 0-.8.3-1.1.7v2.9h-.6v-5.7h.6v2.2c.3-.4.7-.6 1.3-.6.8 0 1.2.5 1.2 1.2v2.9z"/><path d="M29.2 45.9h.6v2.8c0 .5.3.8.8.8.4 0 .8-.3 1.1-.7v-2.9h.6v4h-.6v-.5c-.3.4-.7.6-1.3.6-.8 0-1.2-.5-1.2-1.2v-2.9z"/><path d="M34.9 45.8c.3 0 .6.1.7.2 0 .2-.1.3-.3.5-.2-.1-.3-.2-.5-.2-.4 0-.7.3-.9.8v2.8h-.6v-4h.6v.6c.3-.5.7-.7 1-.7z"/><path d="M38.6 49.9H38v-5.5h3v.4h-2.5V47h2.1v.4h-2.1v2.5z"/><path d="M43.3 45.8c1 0 1.6.6 1.6 2.1s-.6 2.1-1.6 2.1-1.6-.6-1.6-2.1.6-2.1 1.6-2.1zm0 .4c-.7 0-1.1.4-1.1 1.7 0 1.3.4 1.7 1.1 1.7.7 0 1.1-.4 1.1-1.7 0-1.3-.4-1.7-1.1-1.7z"/><path d="M45.9 45.9h.6v2.8c0 .5.3.8.8.8.4 0 .8-.3 1.1-.7v-2.9h.6v4h-.6v-.5c-.4.4-.8.6-1.3.6-.8 0-1.2-.5-1.2-1.2v-2.9z"/><path d="M53 49.9h-.6v-2.8c0-.5-.3-.8-.8-.8-.4 0-.8.3-1.1.7v2.9h-.6v-4h.6v.5c.3-.4.7-.6 1.3-.6.8 0 1.2.5 1.2 1.2v2.9z"/><path d="M56.8 44.2h.3v5.7h-.4l-.1-.5c-.2.4-.6.6-1.2.6-.9 0-1.5-.5-1.5-2.1s.6-2.1 1.5-2.1c.6 0 1 .2 1.2.6v-2.2h.2zm-1.2 2.1c-.7 0-1.1.4-1.1 1.6 0 1.2.3 1.6 1.1 1.6.7 0 1-.6 1-1.1v-1c-.1-.6-.4-1.1-1-1.1z"/><path d="M59.5 45.8c1.1 0 1.4.5 1.4 1.6v2.5h-.4l-.1-.6c-.2.4-.7.7-1.3.7-.7 0-1.2-.4-1.2-1.2s.5-1.2 1.5-1.2c.4 0 .8 0 1 .1v-.4c0-.7-.3-.9-.9-.9-.6 0-1.1.2-1.1.2s-.1-.1-.1-.2v-.2c-.1-.1.5-.4 1.2-.4zm-.1 2.2c-.6 0-1 .2-1 .8 0 .6.3.8.8.8.7 0 1.1-.5 1.1-1.2V48h-.9z"/><path d="M62.8 48.5c0 .7.2 1 .8 1h.4v.4c-.1 0-.3.1-.5.1-.9 0-1.2-.5-1.2-1.5v-2.2h-.6v-.4h.6v-.7c.1-.1.4-.1.6-.1v.9H64v.4h-1.1v2.1z"/><path d="M65.3 45h-.6v-.6h.6v.6zm0 4.9h-.6v-4h.6v4z"/><path d="M67.8 45.8c1 0 1.6.6 1.6 2.1s-.6 2.1-1.6 2.1-1.6-.6-1.6-2.1.6-2.1 1.6-2.1zm0 .4c-.7 0-1.1.4-1.1 1.7 0 1.3.4 1.7 1.1 1.7.7 0 1.1-.4 1.1-1.7 0-1.3-.4-1.7-1.1-1.7z"/><path d="M73.4 49.9h-.6v-2.8c0-.5-.3-.8-.8-.8-.4 0-.8.3-1.1.7v2.9h-.6v-4h.6v.5c.3-.4.7-.6 1.3-.6.8 0 1.2.5 1.2 1.2v2.9z"/></svg>