<svg xmlns="http://www.w3.org/2000/svg"><symbol id="envisioning-justice-logo" viewBox="0 0 214 59"><path d="M7.19 32.45h6.09V48.5c0 6.95-3.12 9.43-9.1 9.43-1.24 0-2.45-.07-3.62-.25V52.9c.71.11 1.81.18 2.62.18 2.59 0 4.01-1.03 4.01-4.26V32.45zM36 52.08c0 1.74 0 3.55.03 5.32h-5.67c-.07-.5-.07-1.35-.1-2.13-.92 1.42-2.31 2.63-6.17 2.63-3.83 0-6.8-2.24-6.8-7.62v-11.2h5.77v10.24c0 2.45.89 4.07 3.3 4.07 2.8 0 3.86-1.66 3.86-5.84v-8.47H36v13zm12.97-6.45c7.44 1.14 8.4 3.62 8.4 6.17 0 3.33-2.52 6.1-9.22 6.1-4.99 0-8.93-2.13-9.49-6.13h5.74c.46 1.31 1.66 2.16 4.14 2.16 2.48 0 3.16-.75 3.16-1.63 0-1.03-.78-1.53-4.47-2.02-6.98-1-7.94-3.55-7.94-5.78 0-2.8 2.09-5.92 8.47-5.92 6.45 0 8.72 3.05 8.97 5.67h-5.67c-.28-.85-.92-1.84-3.51-1.84-2.2 0-2.59.85-2.59 1.49 0 .78.61 1.24 4.01 1.73zm22.61-2.34h-4.26v7.73c0 1.56.32 2.27 2.1 2.27.49 0 1.06 0 1.56-.11v3.97c-1 .29-2.31.39-3.66.39-4.5 0-5.81-1.95-5.81-5.53v-8.72h-3.29v-4.21h3.29v-5.39h5.81v5.39h4.26v4.21zm2.73 14.11V39.08h5.77V57.4h-5.77zm0-21.76V31h5.77v4.64h-5.77zM97.3 51.2h5.78c-.74 3.47-3.72 6.7-9.71 6.7-7.05 0-10.17-4.43-10.17-9.68 0-4.96 3.54-9.64 10.17-9.64 7.27 0 9.36 4.75 9.57 6.77h-5.78c-.35-.99-1.24-2.41-3.75-2.41-2.98 0-4.33 2.2-4.33 5.25 0 2.94 1.24 5.35 4.33 5.35 2.05 0 3.15-.78 3.89-2.34zm27.75-2.94c0 .46 0 .81-.03 1.38h-14.36c.15 2.23 1.74 3.97 4.5 3.97 2.17 0 3.19-.68 3.87-1.81h5.81c-1.13 3.26-3.86 6.1-9.75 6.1-7.51 0-10.2-4.97-10.2-9.64 0-5.14 3.47-9.68 10.17-9.68 7.12 0 9.99 4.93 9.99 9.68zm-14.32-2.16h8.44c-.11-1.39-.85-3.44-4.15-3.44-3.01 0-4.14 1.63-4.29 3.44zM49.36 15.31c.02.25.03.52.03.79v11.3h-5.84V17.02c0-.82-.12-1.61-.44-2.26-.48-1-1.4-1.68-2.97-1.68-1.26 0-2.21.41-2.85 1.17-.75.88-1.11 2.24-1.11 4.01v9.14h-5.82V13.65c0-1.54 0-3.28-.03-4.57h5.63c.07.53.14 1.63.18 2.37.85-1.27 2.52-2.87 6.1-2.87 4.24 0 6.84 2.49 7.12 6.73zM66.4 9.08h5.89l-3.28 7.95-1.99 4.84-2.28 5.53h-6.45l-2.69-6.53-2.14-5.2-2.72-6.59h6.24c1 2.84 1.85 5.19 2.55 7.12.82 2.23 1.43 3.91 1.85 5.18.12.37.22.71.31 1.02h.07c.08-.3.18-.61.28-.96.37-1.21.9-2.75 1.65-4.88.7-1.94 1.58-4.37 2.71-7.48zm7.91 18.32V9.08h5.77V27.4h-5.77zm0-21.76V1h5.77v4.64h-5.77zm26.99 14.21c.23.63.29 1.29.29 1.95 0 1.09-.27 2.13-.88 3.02-1.22 1.83-3.83 3.08-8.33 3.08-4.32 0-7.84-1.59-9.08-4.6-.2-.47-.34-.98-.42-1.53h5.74c.46 1.31 1.67 2.16 4.15 2.16 2.48 0 3.15-.75 3.15-1.63 0-1.03-.78-1.53-4.46-2.02-2.75-.39-4.57-1.03-5.76-1.79-1.83-1.17-2.18-2.64-2.18-3.99 0-2.8 2.09-5.92 8.47-5.92 6.45 0 8.72 3.05 8.96 5.67h-5.67c-.28-.85-.92-1.84-3.5-1.84-2.2 0-2.59.85-2.59 1.49 0 .78.6 1.24 4 1.73 5.52.84 7.47 2.42 8.11 4.22zm3.23 7.55V9.08h5.78V27.4h-5.78zm0-21.76V1h5.78v4.64h-5.78zm19.42 2.94c7.16 0 10.49 5.11 10.49 9.64 0 1.64-.33 3.14-.96 4.45-1.02 2.1-2.82 3.7-5.32 4.55-1.29.44-2.77.68-4.42.68-2.47 0-4.5-.59-6.08-1.6-2-1.26-3.3-3.18-3.88-5.35-.23-.88-.35-1.79-.35-2.73 0-5 3.61-9.64 10.52-9.64zm-.03 14.96c1.48 0 2.59-.54 3.32-1.42.85-.96 1.25-2.32 1.25-3.79 0-2.77-1.38-5.35-4.61-5.35-3.15 0-4.57 2.44-4.57 5.24 0 1.23.29 2.36.86 3.28.75 1.23 2.02 2.04 3.75 2.04zm25.51-14.96c4.5 0 7.16 2.8 7.16 7.52v11.3h-5.85V17.02c0-2.09-.81-3.94-3.4-3.94-2.73 0-3.97 1.88-3.97 5.18v9.14h-5.81V13.72c0-1.56 0-3.33-.04-4.64h5.64c.07.53.14 1.63.18 2.37.85-1.27 2.51-2.87 6.09-2.87zm11.48 18.82V9.08h5.78V27.4h-5.78zm0-21.76V1h5.78v4.64h-5.78zm21.83 2.94c4.5 0 7.16 2.8 7.16 7.52v11.3h-5.85V17.02c0-2.09-.81-3.94-3.4-3.94-2.73 0-3.97 1.88-3.97 5.18v9.14h-5.81V13.72c0-1.56 0-3.33-.04-4.64h5.64c.07.53.14 1.63.18 2.37.85-1.27 2.51-2.87 6.09-2.87zm25.34.5h5.63c-.03 1.81-.03 3.61-.03 5.38v10.88c0 1.61-.17 3.05-.54 4.3-.63 2.1-1.82 3.68-3.71 4.69-1.59.85-3.7 1.29-6.38 1.29-4.11 0-6.51-1.15-7.92-2.54-1.39-1.37-1.81-2.98-1.97-3.98h5.85c.42 1.17 1.41 2.23 4.36 2.23 2.22 0 3.43-.85 4.04-2.19.42-.92.56-2.07.56-3.34v-.77c-1.06 1.48-2.55 2.58-6.09 2.58-5.32 0-8.86-4.14-8.86-9.14 0-5.67 4.07-9.89 9.32-9.89 3.83 0 5.17 1.53 5.63 2.55.04-.63.07-1.59.11-2.05zm-4.61 14.1c2.94 0 4.61-1.73 4.61-5.1 0-2.98-1.52-5-4.43-5-3.05 0-4.71 2.27-4.71 5.18 0 2.65 1.56 4.92 4.53 4.92z" id="nvisioning-Justice"/><path d="M5.995 7.4v-5h20v5h-20zm19.907 10.347L5.914 17.05l.174-4.997 19.988.698-.174 4.997zM5.995 27.4v-5h20v5h-20z" id="E"/></symbol><symbol id="icon-arrow" viewBox="0 0 25 25"><path d="M15 10H0v5h15v5l10-7.5L15 5v5zm-5 10h5v5h-5v-5zm0-20h5v5h-5V0z"/></symbol><symbol id="icon-facebook" viewBox="0 0 21 21"><style>.st0{fill-rule:evenodd;clip-rule:evenodd}</style><path class="st0" d="M1.2 0C.5 0 0 .5 0 1.2v18.7c0 .6.5 1.1 1.2 1.1h10.1v-8.1H8.5V9.7h2.7V7.4c0-2.7 1.7-4.2 4.1-4.2 1.2 0 2.2.1 2.4.1v2.8H16c-1.3 0-1.6.6-1.6 1.5v2h3.1l-.4 3.2h-2.7V21h5.4c.6 0 1.2-.5 1.2-1.2V1.2c0-.7-.5-1.2-1.2-1.2H1.2z"/></symbol><symbol id="icon-image" viewBox="0 0 60 60"><path d="M5 5v50h50V5H5zM0 0h60v60H0V0z"/><path d="M9.867 55h39.95l-7.478-9.678-10.352 9.316-10.244-15.832L9.867 55zM33 47l10-9 17 22H0l22-30 11 17z"/><path d="M37.5 25a2.5 2.5 0 1 0 0-5 2.5 2.5 0 0 0 0 5zm0 5a7.5 7.5 0 1 1 0-15 7.5 7.5 0 0 1 0 15z"/></symbol><symbol id="icon-map" viewBox="0 0 60 60"><path d="M56 53.94l-14-6V26.97l6.48-6.48c.58-.58 1.08-1.2 1.51-1.85L56 21.21v32.73zM34.34 17.66c-3.12-3.12-3.12-8.2 0-11.32A7.949 7.949 0 0 1 40 4c2.14 0 4.15.83 5.66 2.34 3.11 3.12 3.11 8.2 0 11.32L40 23.32l-5.66-5.66zM38 47.94L22 54.8V22.07l8-3.43c.44.65.94 1.27 1.51 1.85L38 26.97v20.97zM18 54.8l-14-6V16.07l14 6V54.8zm33.61-39.82c1.01-3.97-.02-8.36-3.13-11.46A11.924 11.924 0 0 0 40 0c-3.07 0-6.15 1.18-8.49 3.52-3.11 3.11-4.14 7.49-3.12 11.46L20 18.58 0 10v41.43L20 60l20-8.57L60 60V18.58l-8.39-3.6z"/><path d="M45 12c0 2.76-2.24 5-5 5-2.77 0-5-2.24-5-5 0-2.77 2.23-5 5-5 2.76 0 5 2.23 5 5"/></symbol><symbol id="icon-minus" viewBox="0 0 25 25"><path d="M0 10v5h25v-5z"/></symbol><symbol id="icon-pin" viewBox="0 0 25 50"><path d="M0 0h5v25H0V0zm10 0h5v35h-5V0zm10 0h5v25h-5V0zM5 40h15l-7.5 10L5 40z"/></symbol><symbol id="icon-play" viewBox="0 0 25 25"><path d="M8 5l10 7.5L8 20z"/></symbol><symbol id="icon-plus" viewBox="0 0 25 25"><path d="M10 10H0v5h10v10h5V15h10v-5H15V0h-5v10z"/></symbol><symbol id="icon-search" viewBox="0 0 25 25"><path d="M17.828 15l7.071 7.071-2.828 2.828L15 17.83 17.828 15zM10 20C4.477 20 0 15.523 0 10S4.477 0 10 0s10 4.477 10 10-4.477 10-10 10zm0-4a6 6 0 1 0 0-12 6 6 0 0 0 0 12z"/></symbol><symbol id="icon-twitter" viewBox="0 0 25 20.3"><path class="st0" d="M7.9 20.3c9.4 0 14.6-7.8 14.6-14.6V5c1-.7 1.9-1.6 2.6-2.7-.9.4-1.9.7-2.9.8 1.1-.6 1.9-1.6 2.3-2.8-1 .6-2.1 1-3.3 1.2-.9-1-2.3-1.6-3.7-1.6-2.8 0-5.1 2.3-5.1 5.1 0 .4 0 .8.1 1.2C8 6.1 4.3 4 1.7.9c-.4.8-.7 1.7-.7 2.6 0 1.8 1 3.4 2.3 4.3-.8 0-1.6-.3-2.3-.7v.1c0 2.5 1.8 4.6 4.1 5-.4.1-.9.2-1.4.2-.3 0-.7 0-1-.1.7 2 2.5 3.5 4.8 3.6-1.8 1.4-4 2.2-6.4 2.2-.4 0-.8 0-1.2-.1 2.4 1.5 5.1 2.3 8 2.3"/></symbol><symbol id="icon-video" viewBox="0 0 60 60"><path d="M5 20v20h30V20H5zm-5-5h40v30H0V15z"/><path d="M48 30.5l7 5.5V25l-7 5.5zm-8.093 0L60 14.713v31.574L39.907 30.5z"/></symbol><symbol id="icon-youtube" viewBox="0 0 25 17.6"><path class="st0" d="M9.9 12.5l6.5-3.7-6.5-3.7v7.4zm14.6-9.7c.5 1.9.5 6 .5 6s0 4.1-.5 6.1c-.3 1.1-1.1 1.9-2.2 2.2-1.9.5-9.8.5-9.8.5s-7.8 0-9.8-.5C1.6 16.8.8 16 .5 14.9 0 12.9 0 8.8 0 8.8s0-4.1.5-6.1C.8 1.6 1.6.8 2.7.5c2-.5 9.8-.5 9.8-.5s7.8 0 9.8.5c1 .3 1.9 1.2 2.2 2.3z"/></symbol><symbol id="ih-logo-color" viewBox="0 0 441.2 176.6"><style>.ih-logo-color-c1{fill:#fff}.ih-logo-color-c2{fill:#d64f54}.ih-logo-color-c3{fill:#44607f}</style><path class="ih-logo-color-c1" d="M108.1 0h333.1v129.7H108.1z"/><path class="ih-logo-color-c2" d="M0 0v129.7h46.8v46.9l61.3-46.9V0z"/><path class="ih-logo-color-c1" d="M21.6 21.6h64.9V36H21.6z"/><path class="ih-logo-color-c1" d="M86.5 68.5V54H21.6v14.5h25.2v25.2H21.6v14.4h64.9V93.7H61.3V68.5z"/><path class="ih-logo-color-c3" d="M129.7 75.7h2.4v15h20.8v-15h2.4v32.4h-2.4V92.9h-20.8v15.2h-2.4z"/><path class="ih-logo-color-c3" d="M164.4 94.6V75.7h2.4v18.7c0 7.6 4.1 12 11 12 6.6 0 10.8-4 10.8-11.8V75.7h2.4v18.7c0 9.3-5.4 14.3-13.3 14.3-7.8-.1-13.3-5-13.3-14.1"/><path class="ih-logo-color-c3" d="M200.1 75.7h2.2l13 19.1 13.1-19.1h2.2v32.4h-2.4V79.9l-12.8 18.7h-.2l-12.8-18.7v28.2h-2.3z"/><path class="ih-logo-color-c3" d="M262.2 96.8L253.7 78l-8.6 18.8h17.1zm-9.6-21.4h2.3L270 108h-2.6l-4.1-9.1h-19.1l-4.1 9.1h-2.5l15-32.6z"/><path class="ih-logo-color-c3" d="M276.8 75.7h2.3l22.3 28.2V75.7h2.4v32.4h-1.9l-22.8-28.8v28.8h-2.3z"/><path class="ih-logo-color-c3" d="M314.3 75.7h2.4v32.4h-2.4z"/><path class="ih-logo-color-c3" d="M335.3 77.9H324v-2.2h25v2.2h-11.3v30.2h-2.4z"/><path class="ih-logo-color-c3" d="M356.3 75.7h2.4v32.4h-2.4z"/><path class="ih-logo-color-c3" d="M369.3 75.7h23v2.2h-20.6v12.7h18.6v2.2h-18.6v13.1h20.9v2.2h-23.3z"/><path class="ih-logo-color-c3" d="M398.2 103.4l1.6-1.8c3.6 3.3 6.9 4.8 11.6 4.8 4.9 0 8.2-2.7 8.2-6.4v-.1c0-3.4-1.8-5.4-9.2-6.9-7.8-1.6-10.9-4.2-10.9-9.1v-.1c0-4.8 4.4-8.5 10.4-8.5 4.7 0 7.8 1.3 11.1 3.9l-1.5 1.9c-3.1-2.6-6.1-3.7-9.7-3.7-4.8 0-7.9 2.7-7.9 6.1v.1c0 3.4 1.8 5.5 9.4 7.1 7.5 1.5 10.7 4.2 10.7 8.9v.1c0 5.2-4.5 8.8-10.7 8.8-5.2 0-9.2-1.7-13.1-5.1"/><path class="ih-logo-color-c3" d="M129.7 21.6h2.4V54h-2.4z"/><path class="ih-logo-color-c3" d="M142.7 21.6h2.4v30.2h19V54h-21.4z"/><path class="ih-logo-color-c3" d="M171.3 21.6h2.5v30.2h19V54h-21.5z"/><path class="ih-logo-color-c3" d="M200.1 21.6h2.4V54h-2.4z"/><path class="ih-logo-color-c3" d="M213 21.6h2.3l22.4 28.2V21.6h2.3V54h-1.8l-22.8-28.8V54H213z"/><path class="ih-logo-color-c3" d="M278.3 37.9c0-8.1-5.8-14.7-13.8-14.7s-13.8 6.5-13.8 14.5v.1c0 8 5.8 14.6 13.8 14.6 8.1 0 13.8-6.5 13.8-14.5m-30.1 0c0-8.9 6.5-16.9 16.3-16.9s16.3 7.8 16.3 16.7v.1c0 8.8-6.5 16.8-16.3 16.8s-16.3-7.8-16.3-16.7"/><path class="ih-logo-color-c3" d="M289.1 21.6h2.4V54h-2.4z"/><path class="ih-logo-color-c3" d="M299.6 49.3l1.6-1.8c3.6 3.3 6.9 4.8 11.6 4.8 4.9 0 8.2-2.7 8.2-6.4v-.1c0-3.4-1.8-5.4-9.2-6.9-7.8-1.6-10.9-4.2-10.9-9.1v-.1c0-4.8 4.4-8.5 10.4-8.5 4.7 0 7.8 1.3 11.1 3.9l-1.5 1.9c-3.1-2.6-6.1-3.7-9.7-3.7-4.8 0-7.9 2.7-7.9 6.1v.1c0 3.4 1.8 5.5 9.4 7.1 7.5 1.5 10.7 4.2 10.7 8.9v.1c0 5.2-4.5 8.8-10.7 8.8-5.3.1-9.3-1.6-13.1-5.1"/></symbol><symbol id="ih-logo-grayscale" viewBox="0 0 441.2 176.6"><style>.ih-logo-grayscale-c1{fill:#d2cdcd}.ih-logo-grayscale-c2{fill:#323232}</style><path class="ih-logo-grayscale-c1" d="M108.1 0h333.1v129.7H108.1z"/><path class="ih-logo-grayscale-c2" d="M0 0v129.7h46.8v46.9l61.3-46.9V0z"/><path class="ih-logo-grayscale-c1" d="M21.6 21.6h64.9V36H21.6z"/><path class="ih-logo-grayscale-c1" d="M86.5 68.5V54H21.6v14.5h25.2v25.2H21.6v14.4h64.9V93.7H61.3V68.5z"/><path class="ih-logo-grayscale-c2" d="M129.7 75.7h2.4v15h20.8v-15h2.4v32.4h-2.4V92.9h-20.8v15.2h-2.4z"/><path class="ih-logo-grayscale-c2" d="M164.4 94.6V75.7h2.4v18.7c0 7.6 4.1 12 11 12 6.6 0 10.8-4 10.8-11.8V75.7h2.4v18.7c0 9.3-5.4 14.3-13.3 14.3-7.8-.1-13.3-5-13.3-14.1"/><path class="ih-logo-grayscale-c2" d="M200.1 75.7h2.2l13 19.1 13.1-19.1h2.2v32.4h-2.4V79.9l-12.8 18.7h-.2l-12.8-18.7v28.2h-2.3z"/><path class="ih-logo-grayscale-c2" d="M262.2 96.8L253.7 78l-8.6 18.8h17.1zm-9.6-21.4h2.3L270 108h-2.6l-4.1-9.1h-19.1l-4.1 9.1h-2.5l15-32.6z"/><path class="ih-logo-grayscale-c2" d="M276.8 75.7h2.3l22.3 28.2V75.7h2.4v32.4h-1.9l-22.8-28.8v28.8h-2.3z"/><path class="ih-logo-grayscale-c2" d="M314.3 75.7h2.4v32.4h-2.4z"/><path class="ih-logo-grayscale-c2" d="M335.3 77.9H324v-2.2h25v2.2h-11.3v30.2h-2.4z"/><path class="ih-logo-grayscale-c2" d="M356.3 75.7h2.4v32.4h-2.4z"/><path class="ih-logo-grayscale-c2" d="M369.3 75.7h23v2.2h-20.6v12.7h18.6v2.2h-18.6v13.1h20.9v2.2h-23.3z"/><path class="ih-logo-grayscale-c2" d="M398.2 103.4l1.6-1.8c3.6 3.3 6.9 4.8 11.6 4.8 4.9 0 8.2-2.7 8.2-6.4v-.1c0-3.4-1.8-5.4-9.2-6.9-7.8-1.6-10.9-4.2-10.9-9.1v-.1c0-4.8 4.4-8.5 10.4-8.5 4.7 0 7.8 1.3 11.1 3.9l-1.5 1.9c-3.1-2.6-6.1-3.7-9.7-3.7-4.8 0-7.9 2.7-7.9 6.1v.1c0 3.4 1.8 5.5 9.4 7.1 7.5 1.5 10.7 4.2 10.7 8.9v.1c0 5.2-4.5 8.8-10.7 8.8-5.2 0-9.2-1.7-13.1-5.1"/><path class="ih-logo-grayscale-c2" d="M129.7 21.6h2.4V54h-2.4z"/><path class="ih-logo-grayscale-c2" d="M142.7 21.6h2.4v30.2h19V54h-21.4z"/><path class="ih-logo-grayscale-c2" d="M171.3 21.6h2.5v30.2h19V54h-21.5z"/><path class="ih-logo-grayscale-c2" d="M200.1 21.6h2.4V54h-2.4z"/><path class="ih-logo-grayscale-c2" d="M213 21.6h2.3l22.4 28.2V21.6h2.3V54h-1.8l-22.8-28.8V54H213z"/><path class="ih-logo-grayscale-c2" d="M278.3 37.9c0-8.1-5.8-14.7-13.8-14.7s-13.8 6.5-13.8 14.5v.1c0 8 5.8 14.6 13.8 14.6 8.1 0 13.8-6.5 13.8-14.5m-30.1 0c0-8.9 6.5-16.9 16.3-16.9s16.3 7.8 16.3 16.7v.1c0 8.8-6.5 16.8-16.3 16.8s-16.3-7.8-16.3-16.7"/><path class="ih-logo-grayscale-c2" d="M289.1 21.6h2.4V54h-2.4z"/><path class="ih-logo-grayscale-c2" d="M299.6 49.3l1.6-1.8c3.6 3.3 6.9 4.8 11.6 4.8 4.9 0 8.2-2.7 8.2-6.4v-.1c0-3.4-1.8-5.4-9.2-6.9-7.8-1.6-10.9-4.2-10.9-9.1v-.1c0-4.8 4.4-8.5 10.4-8.5 4.7 0 7.8 1.3 11.1 3.9l-1.5 1.9c-3.1-2.6-6.1-3.7-9.7-3.7-4.8 0-7.9 2.7-7.9 6.1v.1c0 3.4 1.8 5.5 9.4 7.1 7.5 1.5 10.7 4.2 10.7 8.9v.1c0 5.2-4.5 8.8-10.7 8.8-5.3.1-9.3-1.6-13.1-5.1"/></symbol><symbol id="map-pin-black" viewBox="0 0 25 50"><style>.st0{fill:#323232}</style><path class="st0" d="M0 0h5v25H0V0zm10 0h5v35h-5V0zm10 0h5v25h-5V0zM5 40h15l-7.5 10L5 40z"/></symbol><symbol id="map-pin-green" viewBox="0 0 25 50"><style>.st0{fill:#23f8ad}</style><path class="st0" d="M0 0h5v25H0V0zm10 0h5v35h-5V0zm10 0h5v25h-5V0zM5 40h15l-7.5 10L5 40z"/></symbol><symbol id="map-pin-orange" viewBox="0 0 25 50"><style>.st0{fill:#f16034}</style><path class="st0" d="M0 0h5v25H0V0zm10 0h5v35h-5V0zm10 0h5v25h-5V0zM5 40h15l-7.5 10L5 40z"/></symbol><symbol id="map-pin-purple" viewBox="0 0 25 50"><style>.st0{fill:#7047f3}</style><path class="st0" d="M0 0h5v25H0V0zm10 0h5v35h-5V0zm10 0h5v25h-5V0zM5 40h15l-7.5 10L5 40z"/></symbol><symbol id="map-pin-yellow" viewBox="0 0 25 50"><style>.st0{fill:#ffe929}</style><path class="st0" d="M0 0h5v25H0V0zm10 0h5v35h-5V0zm10 0h5v25h-5V0zM5 40h15l-7.5 10L5 40z"/></symbol><symbol id="slash" viewBox="0 0 4 20"><path d="M0 0h4v20H0z"/></symbol></svg>